<?xml version="1.0" standalone="no"?>
 <!DOCTYPE svg PUBLIC "-//W3C//DTD SVG 1.1//EN" 
 "http://www.w3.org/Graphics/SVG/1.1/DTD/svg11.dtd"> 
<svg
  xmlns:svg="http://www.w3.org/2000/svg"
  xmlns="http://www.w3.org/2000/svg"
  xmlns:xlink="http://www.w3.org/1999/xlink"
  xmlns:inkscape="http://www.inkscape.org/namespaces/inkscape"
  version="1.1"
  width="99.9998mm" height="119.9896mm" viewBox="0.0000 0.0000 99.9998 119.9896">
<title>SVG Image created as placement_bottom.svg date 2026-09-05T02:20:43 </title>
  <desc>Image generated by PCBNEW </desc>
<g style="fill:#000000; fill-opacity:1.0000;stroke:#000000; stroke-opacity:1.0000;
stroke-linecap:round; stroke-linejoin:round;"
 transform="translate(0 0) scale(1 1)">
</g>
<g style="fill:none; 
stroke:#585D84; stroke-width:0.1200; stroke-opacity:1; 
stroke-linecap:round; stroke-linejoin:round;">
<text x="47.9998" y="110.0750"
textLength="1.8000" font-size="1.0667" lengthAdjust="spacingAndGlyphs"
text-anchor="middle" opacity="0" stroke-opacity="0">H2</text>
<g class="stroked-text"><desc>H2</desc>
<path d="M47.3903 110.0389
L47.3903 109.2389
" />
<path d="M47.3903 109.6198
L47.8474 109.6198
" />
<path d="M47.8474 110.0389
L47.8474 109.2389
" />
<path d="M48.1903 109.3150
L48.2284 109.2769
" />
<path d="M48.2284 109.2769
L48.3046 109.2389
" />
<path d="M48.3046 109.2389
L48.4950 109.2389
" />
<path d="M48.4950 109.2389
L48.5712 109.2769
" />
<path d="M48.5712 109.2769
L48.6093 109.3150
" />
<path d="M48.6093 109.3150
L48.6474 109.3912
" />
<path d="M48.6474 109.3912
L48.6474 109.4674
" />
<path d="M48.6474 109.4674
L48.6093 109.5817
" />
<path d="M48.6093 109.5817
L48.1522 110.0389
" />
<path d="M48.1522 110.0389
L48.6474 110.0389
" />
</g></g>
<g style="fill:none; 
stroke:#585D84; stroke-width:0.1500; stroke-opacity:1; 
stroke-linecap:round; stroke-linejoin:round;">
<text x="47.9998" y="35.5000"
textLength="1.9643" font-size="1.3333" lengthAdjust="spacingAndGlyphs"
text-anchor="middle" opacity="0" stroke-opacity="0">J4</text>
<g class="stroked-text"><desc>J4</desc>
<path d="M47.6665 34.4548
L47.6665 35.1691
" />
<path d="M47.6665 35.1691
L47.6188 35.3120
" />
<path d="M47.6188 35.3120
L47.5236 35.4072
" />
<path d="M47.5236 35.4072
L47.3808 35.4548
" />
<path d="M47.3808 35.4548
L47.2855 35.4548
" />
<path d="M48.5712 34.7882
L48.5712 35.4548
" />
<path d="M48.3331 34.4072
L48.0950 35.1215
" />
<path d="M48.0950 35.1215
L48.7141 35.1215
" />
</g></g>
<g style="fill:none; 
stroke:#585D84; stroke-width:0.1200; stroke-opacity:1; 
stroke-linecap:round; stroke-linejoin:round;">
<text x="47.9998" y="21.6950"
textLength="2.5238" font-size="1.0667" lengthAdjust="spacingAndGlyphs"
text-anchor="middle" opacity="0" stroke-opacity="0">C40</text>
<g class="stroked-text"><desc>C40</desc>
<path d="M47.4855 21.5827
L47.4474 21.6208
" />
<path d="M47.4474 21.6208
L47.3331 21.6589
" />
<path d="M47.3331 21.6589
L47.2569 21.6589
" />
<path d="M47.2569 21.6589
L47.1427 21.6208
" />
<path d="M47.1427 21.6208
L47.0665 21.5446
" />
<path d="M47.0665 21.5446
L47.0284 21.4684
" />
<path d="M47.0284 21.4684
L46.9903 21.3160
" />
<path d="M46.9903 21.3160
L46.9903 21.2017
" />
<path d="M46.9903 21.2017
L47.0284 21.0493
" />
<path d="M47.0284 21.0493
L47.0665 20.9731
" />
<path d="M47.0665 20.9731
L47.1427 20.8970
" />
<path d="M47.1427 20.8970
L47.2569 20.8589
" />
<path d="M47.2569 20.8589
L47.3331 20.8589
" />
<path d="M47.3331 20.8589
L47.4474 20.8970
" />
<path d="M47.4474 20.8970
L47.4855 20.9350
" />
<path d="M48.1712 21.1255
L48.1712 21.6589
" />
<path d="M47.9808 20.8208
L47.7903 21.3922
" />
<path d="M47.7903 21.3922
L48.2855 21.3922
" />
<path d="M48.7427 20.8589
L48.8188 20.8589
" />
<path d="M48.8188 20.8589
L48.8950 20.8970
" />
<path d="M48.8950 20.8970
L48.9331 20.9350
" />
<path d="M48.9331 20.9350
L48.9712 21.0112
" />
<path d="M48.9712 21.0112
L49.0093 21.1636
" />
<path d="M49.0093 21.1636
L49.0093 21.3541
" />
<path d="M49.0093 21.3541
L48.9712 21.5065
" />
<path d="M48.9712 21.5065
L48.9331 21.5827
" />
<path d="M48.9331 21.5827
L48.8950 21.6208
" />
<path d="M48.8950 21.6208
L48.8188 21.6589
" />
<path d="M48.8188 21.6589
L48.7427 21.6589
" />
<path d="M48.7427 21.6589
L48.6665 21.6208
" />
<path d="M48.6665 21.6208
L48.6284 21.5827
" />
<path d="M48.6284 21.5827
L48.5903 21.5065
" />
<path d="M48.5903 21.5065
L48.5522 21.3541
" />
<path d="M48.5522 21.3541
L48.5522 21.1636
" />
<path d="M48.5522 21.1636
L48.5903 21.0112
" />
<path d="M48.5903 21.0112
L48.6284 20.9350
" />
<path d="M48.6284 20.9350
L48.6665 20.8970
" />
<path d="M48.6665 20.8970
L48.7427 20.8589
" />
</g></g>
<g style="fill:none; 
stroke:#585D84; stroke-width:0.0800; stroke-opacity:1; 
stroke-linecap:round; stroke-linejoin:round;">
<text x="47.9998" y="23.2500"
textLength="1.5924" font-size="0.6667" lengthAdjust="spacingAndGlyphs"
text-anchor="middle" opacity="0" stroke-opacity="0">C40</text>
<g class="stroked-text"><desc>C40</desc>
<path d="M47.6784 23.1795
L47.6546 23.2033
" />
<path d="M47.6546 23.2033
L47.5831 23.2271
" />
<path d="M47.5831 23.2271
L47.5355 23.2271
" />
<path d="M47.5355 23.2271
L47.4641 23.2033
" />
<path d="M47.4641 23.2033
L47.4165 23.1557
" />
<path d="M47.4165 23.1557
L47.3927 23.1081
" />
<path d="M47.3927 23.1081
L47.3688 23.0129
" />
<path d="M47.3688 23.0129
L47.3688 22.9414
" />
<path d="M47.3688 22.9414
L47.3927 22.8462
" />
<path d="M47.3927 22.8462
L47.4165 22.7986
" />
<path d="M47.4165 22.7986
L47.4641 22.7510
" />
<path d="M47.4641 22.7510
L47.5355 22.7271
" />
<path d="M47.5355 22.7271
L47.5831 22.7271
" />
<path d="M47.5831 22.7271
L47.6546 22.7510
" />
<path d="M47.6546 22.7510
L47.6784 22.7748
" />
<path d="M48.1069 22.8938
L48.1069 23.2271
" />
<path d="M47.9879 22.7033
L47.8688 23.0605
" />
<path d="M47.8688 23.0605
L48.1784 23.0605
" />
<path d="M48.4641 22.7271
L48.5117 22.7271
" />
<path d="M48.5117 22.7271
L48.5593 22.7510
" />
<path d="M48.5593 22.7510
L48.5831 22.7748
" />
<path d="M48.5831 22.7748
L48.6069 22.8224
" />
<path d="M48.6069 22.8224
L48.6308 22.9176
" />
<path d="M48.6308 22.9176
L48.6308 23.0367
" />
<path d="M48.6308 23.0367
L48.6069 23.1319
" />
<path d="M48.6069 23.1319
L48.5831 23.1795
" />
<path d="M48.5831 23.1795
L48.5593 23.2033
" />
<path d="M48.5593 23.2033
L48.5117 23.2271
" />
<path d="M48.5117 23.2271
L48.4641 23.2271
" />
<path d="M48.4641 23.2271
L48.4165 23.2033
" />
<path d="M48.4165 23.2033
L48.3927 23.1795
" />
<path d="M48.3927 23.1795
L48.3688 23.1319
" />
<path d="M48.3688 23.1319
L48.3450 23.0367
" />
<path d="M48.3450 23.0367
L48.3450 22.9176
" />
<path d="M48.3450 22.9176
L48.3688 22.8224
" />
<path d="M48.3688 22.8224
L48.3927 22.7748
" />
<path d="M48.3927 22.7748
L48.4165 22.7510
" />
<path d="M48.4165 22.7510
L48.4641 22.7271
" />
</g></g>
<g style="fill:none; 
stroke:#585D84; stroke-width:0.1200; stroke-opacity:1; 
stroke-linecap:round; stroke-linejoin:round;">
<text x="47.9998" y="18.6950"
textLength="2.5238" font-size="1.0667" lengthAdjust="spacingAndGlyphs"
text-anchor="middle" opacity="0" stroke-opacity="0">C41</text>
<g class="stroked-text"><desc>C41</desc>
<path d="M47.4855 18.5827
L47.4474 18.6208
" />
<path d="M47.4474 18.6208
L47.3331 18.6589
" />
<path d="M47.3331 18.6589
L47.2569 18.6589
" />
<path d="M47.2569 18.6589
L47.1427 18.6208
" />
<path d="M47.1427 18.6208
L47.0665 18.5446
" />
<path d="M47.0665 18.5446
L47.0284 18.4684
" />
<path d="M47.0284 18.4684
L46.9903 18.3160
" />
<path d="M46.9903 18.3160
L46.9903 18.2017
" />
<path d="M46.9903 18.2017
L47.0284 18.0493
" />
<path d="M47.0284 18.0493
L47.0665 17.9731
" />
<path d="M47.0665 17.9731
L47.1427 17.8970
" />
<path d="M47.1427 17.8970
L47.2569 17.8589
" />
<path d="M47.2569 17.8589
L47.3331 17.8589
" />
<path d="M47.3331 17.8589
L47.4474 17.8970
" />
<path d="M47.4474 17.8970
L47.4855 17.9350
" />
<path d="M48.1712 18.1255
L48.1712 18.6589
" />
<path d="M47.9808 17.8208
L47.7903 18.3922
" />
<path d="M47.7903 18.3922
L48.2855 18.3922
" />
<path d="M49.0093 18.6589
L48.5522 18.6589
" />
<path d="M48.7808 18.6589
L48.7808 17.8589
" />
<path d="M48.7808 17.8589
L48.7046 17.9731
" />
<path d="M48.7046 17.9731
L48.6284 18.0493
" />
<path d="M48.6284 18.0493
L48.5522 18.0874
" />
</g></g>
<g style="fill:none; 
stroke:#585D84; stroke-width:0.0800; stroke-opacity:1; 
stroke-linecap:round; stroke-linejoin:round;">
<text x="47.9998" y="20.2500"
textLength="1.5924" font-size="0.6667" lengthAdjust="spacingAndGlyphs"
text-anchor="middle" opacity="0" stroke-opacity="0">C41</text>
<g class="stroked-text"><desc>C41</desc>
<path d="M47.6784 20.1795
L47.6546 20.2033
" />
<path d="M47.6546 20.2033
L47.5831 20.2271
" />
<path d="M47.5831 20.2271
L47.5355 20.2271
" />
<path d="M47.5355 20.2271
L47.4641 20.2033
" />
<path d="M47.4641 20.2033
L47.4165 20.1557
" />
<path d="M47.4165 20.1557
L47.3927 20.1081
" />
<path d="M47.3927 20.1081
L47.3688 20.0129
" />
<path d="M47.3688 20.0129
L47.3688 19.9414
" />
<path d="M47.3688 19.9414
L47.3927 19.8462
" />
<path d="M47.3927 19.8462
L47.4165 19.7986
" />
<path d="M47.4165 19.7986
L47.4641 19.7510
" />
<path d="M47.4641 19.7510
L47.5355 19.7271
" />
<path d="M47.5355 19.7271
L47.5831 19.7271
" />
<path d="M47.5831 19.7271
L47.6546 19.7510
" />
<path d="M47.6546 19.7510
L47.6784 19.7748
" />
<path d="M48.1069 19.8938
L48.1069 20.2271
" />
<path d="M47.9879 19.7033
L47.8688 20.0605
" />
<path d="M47.8688 20.0605
L48.1784 20.0605
" />
<path d="M48.6308 20.2271
L48.3450 20.2271
" />
<path d="M48.4879 20.2271
L48.4879 19.7271
" />
<path d="M48.4879 19.7271
L48.4403 19.7986
" />
<path d="M48.4403 19.7986
L48.3927 19.8462
" />
<path d="M48.3927 19.8462
L48.3450 19.8700
" />
</g></g>
<g style="fill:none; 
stroke:#585D84; stroke-width:0.1200; stroke-opacity:1; 
stroke-linecap:round; stroke-linejoin:round;">
<text x="74.9998" y="23.6950"
textLength="2.5238" font-size="1.0667" lengthAdjust="spacingAndGlyphs"
text-anchor="middle" opacity="0" stroke-opacity="0">C38</text>
<g class="stroked-text"><desc>C38</desc>
<path d="M74.4855 23.5827
L74.4474 23.6208
" />
<path d="M74.4474 23.6208
L74.3331 23.6589
" />
<path d="M74.3331 23.6589
L74.2569 23.6589
" />
<path d="M74.2569 23.6589
L74.1427 23.6208
" />
<path d="M74.1427 23.6208
L74.0665 23.5446
" />
<path d="M74.0665 23.5446
L74.0284 23.4684
" />
<path d="M74.0284 23.4684
L73.9903 23.3160
" />
<path d="M73.9903 23.3160
L73.9903 23.2017
" />
<path d="M73.9903 23.2017
L74.0284 23.0493
" />
<path d="M74.0284 23.0493
L74.0665 22.9731
" />
<path d="M74.0665 22.9731
L74.1427 22.8970
" />
<path d="M74.1427 22.8970
L74.2569 22.8589
" />
<path d="M74.2569 22.8589
L74.3331 22.8589
" />
<path d="M74.3331 22.8589
L74.4474 22.8970
" />
<path d="M74.4474 22.8970
L74.4855 22.9350
" />
<path d="M74.7522 22.8589
L75.2474 22.8589
" />
<path d="M75.2474 22.8589
L74.9808 23.1636
" />
<path d="M74.9808 23.1636
L75.0950 23.1636
" />
<path d="M75.0950 23.1636
L75.1712 23.2017
" />
<path d="M75.1712 23.2017
L75.2093 23.2398
" />
<path d="M75.2093 23.2398
L75.2474 23.3160
" />
<path d="M75.2474 23.3160
L75.2474 23.5065
" />
<path d="M75.2474 23.5065
L75.2093 23.5827
" />
<path d="M75.2093 23.5827
L75.1712 23.6208
" />
<path d="M75.1712 23.6208
L75.0950 23.6589
" />
<path d="M75.0950 23.6589
L74.8665 23.6589
" />
<path d="M74.8665 23.6589
L74.7903 23.6208
" />
<path d="M74.7903 23.6208
L74.7522 23.5827
" />
<path d="M75.7046 23.2017
L75.6284 23.1636
" />
<path d="M75.6284 23.1636
L75.5903 23.1255
" />
<path d="M75.5903 23.1255
L75.5522 23.0493
" />
<path d="M75.5522 23.0493
L75.5522 23.0112
" />
<path d="M75.5522 23.0112
L75.5903 22.9350
" />
<path d="M75.5903 22.9350
L75.6284 22.8970
" />
<path d="M75.6284 22.8970
L75.7046 22.8589
" />
<path d="M75.7046 22.8589
L75.8569 22.8589
" />
<path d="M75.8569 22.8589
L75.9331 22.8970
" />
<path d="M75.9331 22.8970
L75.9712 22.9350
" />
<path d="M75.9712 22.9350
L76.0093 23.0112
" />
<path d="M76.0093 23.0112
L76.0093 23.0493
" />
<path d="M76.0093 23.0493
L75.9712 23.1255
" />
<path d="M75.9712 23.1255
L75.9331 23.1636
" />
<path d="M75.9331 23.1636
L75.8569 23.2017
" />
<path d="M75.8569 23.2017
L75.7046 23.2017
" />
<path d="M75.7046 23.2017
L75.6284 23.2398
" />
<path d="M75.6284 23.2398
L75.5903 23.2779
" />
<path d="M75.5903 23.2779
L75.5522 23.3541
" />
<path d="M75.5522 23.3541
L75.5522 23.5065
" />
<path d="M75.5522 23.5065
L75.5903 23.5827
" />
<path d="M75.5903 23.5827
L75.6284 23.6208
" />
<path d="M75.6284 23.6208
L75.7046 23.6589
" />
<path d="M75.7046 23.6589
L75.8569 23.6589
" />
<path d="M75.8569 23.6589
L75.9331 23.6208
" />
<path d="M75.9331 23.6208
L75.9712 23.5827
" />
<path d="M75.9712 23.5827
L76.0093 23.5065
" />
<path d="M76.0093 23.5065
L76.0093 23.3541
" />
<path d="M76.0093 23.3541
L75.9712 23.2779
" />
<path d="M75.9712 23.2779
L75.9331 23.2398
" />
<path d="M75.9331 23.2398
L75.8569 23.2017
" />
</g></g>
<g style="fill:none; 
stroke:#585D84; stroke-width:0.0800; stroke-opacity:1; 
stroke-linecap:round; stroke-linejoin:round;">
<text x="74.9998" y="25.2500"
textLength="1.5924" font-size="0.6667" lengthAdjust="spacingAndGlyphs"
text-anchor="middle" opacity="0" stroke-opacity="0">C38</text>
<g class="stroked-text"><desc>C38</desc>
<path d="M74.6784 25.1795
L74.6546 25.2033
" />
<path d="M74.6546 25.2033
L74.5831 25.2271
" />
<path d="M74.5831 25.2271
L74.5355 25.2271
" />
<path d="M74.5355 25.2271
L74.4641 25.2033
" />
<path d="M74.4641 25.2033
L74.4165 25.1557
" />
<path d="M74.4165 25.1557
L74.3927 25.1081
" />
<path d="M74.3927 25.1081
L74.3688 25.0129
" />
<path d="M74.3688 25.0129
L74.3688 24.9414
" />
<path d="M74.3688 24.9414
L74.3927 24.8462
" />
<path d="M74.3927 24.8462
L74.4165 24.7986
" />
<path d="M74.4165 24.7986
L74.4641 24.7510
" />
<path d="M74.4641 24.7510
L74.5355 24.7271
" />
<path d="M74.5355 24.7271
L74.5831 24.7271
" />
<path d="M74.5831 24.7271
L74.6546 24.7510
" />
<path d="M74.6546 24.7510
L74.6784 24.7748
" />
<path d="M74.8450 24.7271
L75.1546 24.7271
" />
<path d="M75.1546 24.7271
L74.9879 24.9176
" />
<path d="M74.9879 24.9176
L75.0593 24.9176
" />
<path d="M75.0593 24.9176
L75.1069 24.9414
" />
<path d="M75.1069 24.9414
L75.1308 24.9652
" />
<path d="M75.1308 24.9652
L75.1546 25.0129
" />
<path d="M75.1546 25.0129
L75.1546 25.1319
" />
<path d="M75.1546 25.1319
L75.1308 25.1795
" />
<path d="M75.1308 25.1795
L75.1069 25.2033
" />
<path d="M75.1069 25.2033
L75.0593 25.2271
" />
<path d="M75.0593 25.2271
L74.9165 25.2271
" />
<path d="M74.9165 25.2271
L74.8688 25.2033
" />
<path d="M74.8688 25.2033
L74.8450 25.1795
" />
<path d="M75.4403 24.9414
L75.3927 24.9176
" />
<path d="M75.3927 24.9176
L75.3688 24.8938
" />
<path d="M75.3688 24.8938
L75.3450 24.8462
" />
<path d="M75.3450 24.8462
L75.3450 24.8224
" />
<path d="M75.3450 24.8224
L75.3688 24.7748
" />
<path d="M75.3688 24.7748
L75.3927 24.7510
" />
<path d="M75.3927 24.7510
L75.4403 24.7271
" />
<path d="M75.4403 24.7271
L75.5355 24.7271
" />
<path d="M75.5355 24.7271
L75.5831 24.7510
" />
<path d="M75.5831 24.7510
L75.6069 24.7748
" />
<path d="M75.6069 24.7748
L75.6308 24.8224
" />
<path d="M75.6308 24.8224
L75.6308 24.8462
" />
<path d="M75.6308 24.8462
L75.6069 24.8938
" />
<path d="M75.6069 24.8938
L75.5831 24.9176
" />
<path d="M75.5831 24.9176
L75.5355 24.9414
" />
<path d="M75.5355 24.9414
L75.4403 24.9414
" />
<path d="M75.4403 24.9414
L75.3927 24.9652
" />
<path d="M75.3927 24.9652
L75.3688 24.9891
" />
<path d="M75.3688 24.9891
L75.3450 25.0367
" />
<path d="M75.3450 25.0367
L75.3450 25.1319
" />
<path d="M75.3450 25.1319
L75.3688 25.1795
" />
<path d="M75.3688 25.1795
L75.3927 25.2033
" />
<path d="M75.3927 25.2033
L75.4403 25.2271
" />
<path d="M75.4403 25.2271
L75.5355 25.2271
" />
<path d="M75.5355 25.2271
L75.5831 25.2033
" />
<path d="M75.5831 25.2033
L75.6069 25.1795
" />
<path d="M75.6069 25.1795
L75.6308 25.1319
" />
<path d="M75.6308 25.1319
L75.6308 25.0367
" />
<path d="M75.6308 25.0367
L75.6069 24.9891
" />
<path d="M75.6069 24.9891
L75.5831 24.9652
" />
<path d="M75.5831 24.9652
L75.5355 24.9414
" />
</g></g>
<g style="fill:none; 
stroke:#585D84; stroke-width:0.1200; stroke-opacity:1; 
stroke-linecap:round; stroke-linejoin:round;">
<text x="52.4998" y="21.6950"
textLength="2.5238" font-size="1.0667" lengthAdjust="spacingAndGlyphs"
text-anchor="middle" opacity="0" stroke-opacity="0">C42</text>
<g class="stroked-text"><desc>C42</desc>
<path d="M51.9855 21.5827
L51.9474 21.6208
" />
<path d="M51.9474 21.6208
L51.8331 21.6589
" />
<path d="M51.8331 21.6589
L51.7569 21.6589
" />
<path d="M51.7569 21.6589
L51.6427 21.6208
" />
<path d="M51.6427 21.6208
L51.5665 21.5446
" />
<path d="M51.5665 21.5446
L51.5284 21.4684
" />
<path d="M51.5284 21.4684
L51.4903 21.3160
" />
<path d="M51.4903 21.3160
L51.4903 21.2017
" />
<path d="M51.4903 21.2017
L51.5284 21.0493
" />
<path d="M51.5284 21.0493
L51.5665 20.9731
" />
<path d="M51.5665 20.9731
L51.6427 20.8970
" />
<path d="M51.6427 20.8970
L51.7569 20.8589
" />
<path d="M51.7569 20.8589
L51.8331 20.8589
" />
<path d="M51.8331 20.8589
L51.9474 20.8970
" />
<path d="M51.9474 20.8970
L51.9855 20.9350
" />
<path d="M52.6712 21.1255
L52.6712 21.6589
" />
<path d="M52.4808 20.8208
L52.2903 21.3922
" />
<path d="M52.2903 21.3922
L52.7855 21.3922
" />
<path d="M53.0522 20.9350
L53.0903 20.8970
" />
<path d="M53.0903 20.8970
L53.1665 20.8589
" />
<path d="M53.1665 20.8589
L53.3569 20.8589
" />
<path d="M53.3569 20.8589
L53.4331 20.8970
" />
<path d="M53.4331 20.8970
L53.4712 20.9350
" />
<path d="M53.4712 20.9350
L53.5093 21.0112
" />
<path d="M53.5093 21.0112
L53.5093 21.0874
" />
<path d="M53.5093 21.0874
L53.4712 21.2017
" />
<path d="M53.4712 21.2017
L53.0141 21.6589
" />
<path d="M53.0141 21.6589
L53.5093 21.6589
" />
</g></g>
<g style="fill:none; 
stroke:#585D84; stroke-width:0.0800; stroke-opacity:1; 
stroke-linecap:round; stroke-linejoin:round;">
<text x="52.4998" y="23.2500"
textLength="1.5924" font-size="0.6667" lengthAdjust="spacingAndGlyphs"
text-anchor="middle" opacity="0" stroke-opacity="0">C42</text>
<g class="stroked-text"><desc>C42</desc>
<path d="M52.1784 23.1795
L52.1546 23.2033
" />
<path d="M52.1546 23.2033
L52.0831 23.2271
" />
<path d="M52.0831 23.2271
L52.0355 23.2271
" />
<path d="M52.0355 23.2271
L51.9641 23.2033
" />
<path d="M51.9641 23.2033
L51.9165 23.1557
" />
<path d="M51.9165 23.1557
L51.8927 23.1081
" />
<path d="M51.8927 23.1081
L51.8688 23.0129
" />
<path d="M51.8688 23.0129
L51.8688 22.9414
" />
<path d="M51.8688 22.9414
L51.8927 22.8462
" />
<path d="M51.8927 22.8462
L51.9165 22.7986
" />
<path d="M51.9165 22.7986
L51.9641 22.7510
" />
<path d="M51.9641 22.7510
L52.0355 22.7271
" />
<path d="M52.0355 22.7271
L52.0831 22.7271
" />
<path d="M52.0831 22.7271
L52.1546 22.7510
" />
<path d="M52.1546 22.7510
L52.1784 22.7748
" />
<path d="M52.6069 22.8938
L52.6069 23.2271
" />
<path d="M52.4879 22.7033
L52.3688 23.0605
" />
<path d="M52.3688 23.0605
L52.6784 23.0605
" />
<path d="M52.8450 22.7748
L52.8688 22.7510
" />
<path d="M52.8688 22.7510
L52.9165 22.7271
" />
<path d="M52.9165 22.7271
L53.0355 22.7271
" />
<path d="M53.0355 22.7271
L53.0831 22.7510
" />
<path d="M53.0831 22.7510
L53.1069 22.7748
" />
<path d="M53.1069 22.7748
L53.1308 22.8224
" />
<path d="M53.1308 22.8224
L53.1308 22.8700
" />
<path d="M53.1308 22.8700
L53.1069 22.9414
" />
<path d="M53.1069 22.9414
L52.8212 23.2271
" />
<path d="M52.8212 23.2271
L53.1308 23.2271
" />
</g></g>
<g style="fill:none; 
stroke:#585D84; stroke-width:0.1200; stroke-opacity:1; 
stroke-linecap:round; stroke-linejoin:round;">
<text x="74.9998" y="26.6950"
textLength="2.5238" font-size="1.0667" lengthAdjust="spacingAndGlyphs"
text-anchor="middle" opacity="0" stroke-opacity="0">C39</text>
<g class="stroked-text"><desc>C39</desc>
<path d="M74.4855 26.5827
L74.4474 26.6208
" />
<path d="M74.4474 26.6208
L74.3331 26.6589
" />
<path d="M74.3331 26.6589
L74.2569 26.6589
" />
<path d="M74.2569 26.6589
L74.1427 26.6208
" />
<path d="M74.1427 26.6208
L74.0665 26.5446
" />
<path d="M74.0665 26.5446
L74.0284 26.4684
" />
<path d="M74.0284 26.4684
L73.9903 26.3160
" />
<path d="M73.9903 26.3160
L73.9903 26.2017
" />
<path d="M73.9903 26.2017
L74.0284 26.0493
" />
<path d="M74.0284 26.0493
L74.0665 25.9731
" />
<path d="M74.0665 25.9731
L74.1427 25.8970
" />
<path d="M74.1427 25.8970
L74.2569 25.8589
" />
<path d="M74.2569 25.8589
L74.3331 25.8589
" />
<path d="M74.3331 25.8589
L74.4474 25.8970
" />
<path d="M74.4474 25.8970
L74.4855 25.9350
" />
<path d="M74.7522 25.8589
L75.2474 25.8589
" />
<path d="M75.2474 25.8589
L74.9808 26.1636
" />
<path d="M74.9808 26.1636
L75.0950 26.1636
" />
<path d="M75.0950 26.1636
L75.1712 26.2017
" />
<path d="M75.1712 26.2017
L75.2093 26.2398
" />
<path d="M75.2093 26.2398
L75.2474 26.3160
" />
<path d="M75.2474 26.3160
L75.2474 26.5065
" />
<path d="M75.2474 26.5065
L75.2093 26.5827
" />
<path d="M75.2093 26.5827
L75.1712 26.6208
" />
<path d="M75.1712 26.6208
L75.0950 26.6589
" />
<path d="M75.0950 26.6589
L74.8665 26.6589
" />
<path d="M74.8665 26.6589
L74.7903 26.6208
" />
<path d="M74.7903 26.6208
L74.7522 26.5827
" />
<path d="M75.6284 26.6589
L75.7808 26.6589
" />
<path d="M75.7808 26.6589
L75.8569 26.6208
" />
<path d="M75.8569 26.6208
L75.8950 26.5827
" />
<path d="M75.8950 26.5827
L75.9712 26.4684
" />
<path d="M75.9712 26.4684
L76.0093 26.3160
" />
<path d="M76.0093 26.3160
L76.0093 26.0112
" />
<path d="M76.0093 26.0112
L75.9712 25.9350
" />
<path d="M75.9712 25.9350
L75.9331 25.8970
" />
<path d="M75.9331 25.8970
L75.8569 25.8589
" />
<path d="M75.8569 25.8589
L75.7046 25.8589
" />
<path d="M75.7046 25.8589
L75.6284 25.8970
" />
<path d="M75.6284 25.8970
L75.5903 25.9350
" />
<path d="M75.5903 25.9350
L75.5522 26.0112
" />
<path d="M75.5522 26.0112
L75.5522 26.2017
" />
<path d="M75.5522 26.2017
L75.5903 26.2779
" />
<path d="M75.5903 26.2779
L75.6284 26.3160
" />
<path d="M75.6284 26.3160
L75.7046 26.3541
" />
<path d="M75.7046 26.3541
L75.8569 26.3541
" />
<path d="M75.8569 26.3541
L75.9331 26.3160
" />
<path d="M75.9331 26.3160
L75.9712 26.2779
" />
<path d="M75.9712 26.2779
L76.0093 26.2017
" />
</g></g>
<g style="fill:none; 
stroke:#585D84; stroke-width:0.0800; stroke-opacity:1; 
stroke-linecap:round; stroke-linejoin:round;">
<text x="74.9998" y="28.2500"
textLength="1.5924" font-size="0.6667" lengthAdjust="spacingAndGlyphs"
text-anchor="middle" opacity="0" stroke-opacity="0">C39</text>
<g class="stroked-text"><desc>C39</desc>
<path d="M74.6784 28.1795
L74.6546 28.2033
" />
<path d="M74.6546 28.2033
L74.5831 28.2271
" />
<path d="M74.5831 28.2271
L74.5355 28.2271
" />
<path d="M74.5355 28.2271
L74.4641 28.2033
" />
<path d="M74.4641 28.2033
L74.4165 28.1557
" />
<path d="M74.4165 28.1557
L74.3927 28.1081
" />
<path d="M74.3927 28.1081
L74.3688 28.0129
" />
<path d="M74.3688 28.0129
L74.3688 27.9414
" />
<path d="M74.3688 27.9414
L74.3927 27.8462
" />
<path d="M74.3927 27.8462
L74.4165 27.7986
" />
<path d="M74.4165 27.7986
L74.4641 27.7510
" />
<path d="M74.4641 27.7510
L74.5355 27.7271
" />
<path d="M74.5355 27.7271
L74.5831 27.7271
" />
<path d="M74.5831 27.7271
L74.6546 27.7510
" />
<path d="M74.6546 27.7510
L74.6784 27.7748
" />
<path d="M74.8450 27.7271
L75.1546 27.7271
" />
<path d="M75.1546 27.7271
L74.9879 27.9176
" />
<path d="M74.9879 27.9176
L75.0593 27.9176
" />
<path d="M75.0593 27.9176
L75.1069 27.9414
" />
<path d="M75.1069 27.9414
L75.1308 27.9652
" />
<path d="M75.1308 27.9652
L75.1546 28.0129
" />
<path d="M75.1546 28.0129
L75.1546 28.1319
" />
<path d="M75.1546 28.1319
L75.1308 28.1795
" />
<path d="M75.1308 28.1795
L75.1069 28.2033
" />
<path d="M75.1069 28.2033
L75.0593 28.2271
" />
<path d="M75.0593 28.2271
L74.9165 28.2271
" />
<path d="M74.9165 28.2271
L74.8688 28.2033
" />
<path d="M74.8688 28.2033
L74.8450 28.1795
" />
<path d="M75.3927 28.2271
L75.4879 28.2271
" />
<path d="M75.4879 28.2271
L75.5355 28.2033
" />
<path d="M75.5355 28.2033
L75.5593 28.1795
" />
<path d="M75.5593 28.1795
L75.6069 28.1081
" />
<path d="M75.6069 28.1081
L75.6308 28.0129
" />
<path d="M75.6308 28.0129
L75.6308 27.8224
" />
<path d="M75.6308 27.8224
L75.6069 27.7748
" />
<path d="M75.6069 27.7748
L75.5831 27.7510
" />
<path d="M75.5831 27.7510
L75.5355 27.7271
" />
<path d="M75.5355 27.7271
L75.4403 27.7271
" />
<path d="M75.4403 27.7271
L75.3927 27.7510
" />
<path d="M75.3927 27.7510
L75.3688 27.7748
" />
<path d="M75.3688 27.7748
L75.3450 27.8224
" />
<path d="M75.3450 27.8224
L75.3450 27.9414
" />
<path d="M75.3450 27.9414
L75.3688 27.9891
" />
<path d="M75.3688 27.9891
L75.3927 28.0129
" />
<path d="M75.3927 28.0129
L75.4403 28.0367
" />
<path d="M75.4403 28.0367
L75.5355 28.0367
" />
<path d="M75.5355 28.0367
L75.5831 28.0129
" />
<path d="M75.5831 28.0129
L75.6069 27.9891
" />
<path d="M75.6069 27.9891
L75.6308 27.9414
" />
</g></g>
<g style="fill:none; 
stroke:#585D84; stroke-width:0.1200; stroke-opacity:1; 
stroke-linecap:round; stroke-linejoin:round;">
<text x="5.9998" y="43.7350"
textLength="1.7619" font-size="1.0667" lengthAdjust="spacingAndGlyphs"
text-anchor="middle" opacity="0" stroke-opacity="0">D2</text>
<g class="stroked-text"><desc>D2</desc>
<path d="M5.4093 43.6989
L5.4093 42.8989
" />
<path d="M5.4093 42.8989
L5.5998 42.8989
" />
<path d="M5.5998 42.8989
L5.7141 42.9369
" />
<path d="M5.7141 42.9369
L5.7903 43.0131
" />
<path d="M5.7903 43.0131
L5.8284 43.0893
" />
<path d="M5.8284 43.0893
L5.8665 43.2417
" />
<path d="M5.8665 43.2417
L5.8665 43.3560
" />
<path d="M5.8665 43.3560
L5.8284 43.5084
" />
<path d="M5.8284 43.5084
L5.7903 43.5846
" />
<path d="M5.7903 43.5846
L5.7141 43.6608
" />
<path d="M5.7141 43.6608
L5.5998 43.6989
" />
<path d="M5.5998 43.6989
L5.4093 43.6989
" />
<path d="M6.1712 42.9750
L6.2093 42.9369
" />
<path d="M6.2093 42.9369
L6.2855 42.8989
" />
<path d="M6.2855 42.8989
L6.4760 42.8989
" />
<path d="M6.4760 42.8989
L6.5522 42.9369
" />
<path d="M6.5522 42.9369
L6.5903 42.9750
" />
<path d="M6.5903 42.9750
L6.6284 43.0512
" />
<path d="M6.6284 43.0512
L6.6284 43.1274
" />
<path d="M6.6284 43.1274
L6.5903 43.2417
" />
<path d="M6.5903 43.2417
L6.1331 43.6989
" />
<path d="M6.1331 43.6989
L6.6284 43.6989
" />
</g></g>
<g style="fill:none; 
stroke:#585D84; stroke-width:0.1500; stroke-opacity:1; 
stroke-linecap:round; stroke-linejoin:round;">
<text x="5.9998" y="46.5000"
textLength="2.2024" font-size="1.3333" lengthAdjust="spacingAndGlyphs"
text-anchor="middle" opacity="0" stroke-opacity="0">D2</text>
<g class="stroked-text"><desc>D2</desc>
<path d="M5.2617 46.4548
L5.2617 45.4548
" />
<path d="M5.2617 45.4548
L5.4998 45.4548
" />
<path d="M5.4998 45.4548
L5.6427 45.5024
" />
<path d="M5.6427 45.5024
L5.7379 45.5977
" />
<path d="M5.7379 45.5977
L5.7855 45.6929
" />
<path d="M5.7855 45.6929
L5.8331 45.8834
" />
<path d="M5.8331 45.8834
L5.8331 46.0262
" />
<path d="M5.8331 46.0262
L5.7855 46.2167
" />
<path d="M5.7855 46.2167
L5.7379 46.3120
" />
<path d="M5.7379 46.3120
L5.6427 46.4072
" />
<path d="M5.6427 46.4072
L5.4998 46.4548
" />
<path d="M5.4998 46.4548
L5.2617 46.4548
" />
<path d="M6.2141 45.5501
L6.2617 45.5024
" />
<path d="M6.2617 45.5024
L6.3569 45.4548
" />
<path d="M6.3569 45.4548
L6.5950 45.4548
" />
<path d="M6.5950 45.4548
L6.6903 45.5024
" />
<path d="M6.6903 45.5024
L6.7379 45.5501
" />
<path d="M6.7379 45.5501
L6.7855 45.6453
" />
<path d="M6.7855 45.6453
L6.7855 45.7405
" />
<path d="M6.7855 45.7405
L6.7379 45.8834
" />
<path d="M6.7379 45.8834
L6.1665 46.4548
" />
<path d="M6.1665 46.4548
L6.7855 46.4548
" />
</g></g>
<g style="fill:none; 
stroke:#585D84; stroke-width:0.1200; stroke-opacity:1; 
stroke-linecap:round; stroke-linejoin:round;">
<text x="79.9998" y="110.0750"
textLength="1.8000" font-size="1.0667" lengthAdjust="spacingAndGlyphs"
text-anchor="middle" opacity="0" stroke-opacity="0">H1</text>
<g class="stroked-text"><desc>H1</desc>
<path d="M79.3903 110.0389
L79.3903 109.2389
" />
<path d="M79.3903 109.6198
L79.8474 109.6198
" />
<path d="M79.8474 110.0389
L79.8474 109.2389
" />
<path d="M80.6474 110.0389
L80.1903 110.0389
" />
<path d="M80.4188 110.0389
L80.4188 109.2389
" />
<path d="M80.4188 109.2389
L80.3427 109.3531
" />
<path d="M80.3427 109.3531
L80.2665 109.4293
" />
<path d="M80.2665 109.4293
L80.1903 109.4674
" />
</g><text x="74.9998" y="20.6950"
textLength="2.5238" font-size="1.0667" lengthAdjust="spacingAndGlyphs"
text-anchor="middle" opacity="0" stroke-opacity="0">C37</text>
<g class="stroked-text"><desc>C37</desc>
<path d="M74.4855 20.5827
L74.4474 20.6208
" />
<path d="M74.4474 20.6208
L74.3331 20.6589
" />
<path d="M74.3331 20.6589
L74.2569 20.6589
" />
<path d="M74.2569 20.6589
L74.1427 20.6208
" />
<path d="M74.1427 20.6208
L74.0665 20.5446
" />
<path d="M74.0665 20.5446
L74.0284 20.4684
" />
<path d="M74.0284 20.4684
L73.9903 20.3160
" />
<path d="M73.9903 20.3160
L73.9903 20.2017
" />
<path d="M73.9903 20.2017
L74.0284 20.0493
" />
<path d="M74.0284 20.0493
L74.0665 19.9731
" />
<path d="M74.0665 19.9731
L74.1427 19.8970
" />
<path d="M74.1427 19.8970
L74.2569 19.8589
" />
<path d="M74.2569 19.8589
L74.3331 19.8589
" />
<path d="M74.3331 19.8589
L74.4474 19.8970
" />
<path d="M74.4474 19.8970
L74.4855 19.9350
" />
<path d="M74.7522 19.8589
L75.2474 19.8589
" />
<path d="M75.2474 19.8589
L74.9808 20.1636
" />
<path d="M74.9808 20.1636
L75.0950 20.1636
" />
<path d="M75.0950 20.1636
L75.1712 20.2017
" />
<path d="M75.1712 20.2017
L75.2093 20.2398
" />
<path d="M75.2093 20.2398
L75.2474 20.3160
" />
<path d="M75.2474 20.3160
L75.2474 20.5065
" />
<path d="M75.2474 20.5065
L75.2093 20.5827
" />
<path d="M75.2093 20.5827
L75.1712 20.6208
" />
<path d="M75.1712 20.6208
L75.0950 20.6589
" />
<path d="M75.0950 20.6589
L74.8665 20.6589
" />
<path d="M74.8665 20.6589
L74.7903 20.6208
" />
<path d="M74.7903 20.6208
L74.7522 20.5827
" />
<path d="M75.5141 19.8589
L76.0474 19.8589
" />
<path d="M76.0474 19.8589
L75.7046 20.6589
" />
</g></g>
<g style="fill:none; 
stroke:#585D84; stroke-width:0.0800; stroke-opacity:1; 
stroke-linecap:round; stroke-linejoin:round;">
<text x="74.9998" y="22.2500"
textLength="1.5924" font-size="0.6667" lengthAdjust="spacingAndGlyphs"
text-anchor="middle" opacity="0" stroke-opacity="0">C37</text>
<g class="stroked-text"><desc>C37</desc>
<path d="M74.6784 22.1795
L74.6546 22.2033
" />
<path d="M74.6546 22.2033
L74.5831 22.2271
" />
<path d="M74.5831 22.2271
L74.5355 22.2271
" />
<path d="M74.5355 22.2271
L74.4641 22.2033
" />
<path d="M74.4641 22.2033
L74.4165 22.1557
" />
<path d="M74.4165 22.1557
L74.3927 22.1081
" />
<path d="M74.3927 22.1081
L74.3688 22.0129
" />
<path d="M74.3688 22.0129
L74.3688 21.9414
" />
<path d="M74.3688 21.9414
L74.3927 21.8462
" />
<path d="M74.3927 21.8462
L74.4165 21.7986
" />
<path d="M74.4165 21.7986
L74.4641 21.7510
" />
<path d="M74.4641 21.7510
L74.5355 21.7271
" />
<path d="M74.5355 21.7271
L74.5831 21.7271
" />
<path d="M74.5831 21.7271
L74.6546 21.7510
" />
<path d="M74.6546 21.7510
L74.6784 21.7748
" />
<path d="M74.8450 21.7271
L75.1546 21.7271
" />
<path d="M75.1546 21.7271
L74.9879 21.9176
" />
<path d="M74.9879 21.9176
L75.0593 21.9176
" />
<path d="M75.0593 21.9176
L75.1069 21.9414
" />
<path d="M75.1069 21.9414
L75.1308 21.9652
" />
<path d="M75.1308 21.9652
L75.1546 22.0129
" />
<path d="M75.1546 22.0129
L75.1546 22.1319
" />
<path d="M75.1546 22.1319
L75.1308 22.1795
" />
<path d="M75.1308 22.1795
L75.1069 22.2033
" />
<path d="M75.1069 22.2033
L75.0593 22.2271
" />
<path d="M75.0593 22.2271
L74.9165 22.2271
" />
<path d="M74.9165 22.2271
L74.8688 22.2033
" />
<path d="M74.8688 22.2033
L74.8450 22.1795
" />
<path d="M75.3212 21.7271
L75.6546 21.7271
" />
<path d="M75.6546 21.7271
L75.4403 22.2271
" />
</g></g>
<g style="fill:none; 
stroke:#585D84; stroke-width:0.1200; stroke-opacity:1; 
stroke-linecap:round; stroke-linejoin:round;">
<text x="16.9998" y="32.2601"
textLength="1.7619" font-size="1.0667" lengthAdjust="spacingAndGlyphs"
text-anchor="middle" opacity="0" stroke-opacity="0">D1</text>
<g class="stroked-text"><desc>D1</desc>
<path d="M16.4093 32.2240
L16.4093 31.4240
" />
<path d="M16.4093 31.4240
L16.5998 31.4240
" />
<path d="M16.5998 31.4240
L16.7141 31.4621
" />
<path d="M16.7141 31.4621
L16.7903 31.5383
" />
<path d="M16.7903 31.5383
L16.8284 31.6145
" />
<path d="M16.8284 31.6145
L16.8665 31.7668
" />
<path d="M16.8665 31.7668
L16.8665 31.8811
" />
<path d="M16.8665 31.8811
L16.8284 32.0335
" />
<path d="M16.8284 32.0335
L16.7903 32.1097
" />
<path d="M16.7903 32.1097
L16.7141 32.1859
" />
<path d="M16.7141 32.1859
L16.5998 32.2240
" />
<path d="M16.5998 32.2240
L16.4093 32.2240
" />
<path d="M17.6284 32.2240
L17.1712 32.2240
" />
<path d="M17.3998 32.2240
L17.3998 31.4240
" />
<path d="M17.3998 31.4240
L17.3236 31.5383
" />
<path d="M17.3236 31.5383
L17.2474 31.6145
" />
<path d="M17.2474 31.6145
L17.1712 31.6526
" />
</g></g>
<g style="fill:none; 
stroke:#585D84; stroke-width:0.1500; stroke-opacity:1; 
stroke-linecap:round; stroke-linejoin:round;">
<text x="16.9998" y="34.5000"
textLength="2.2024" font-size="1.3333" lengthAdjust="spacingAndGlyphs"
text-anchor="middle" opacity="0" stroke-opacity="0">D1</text>
<g class="stroked-text"><desc>D1</desc>
<path d="M16.2617 34.4548
L16.2617 33.4548
" />
<path d="M16.2617 33.4548
L16.4998 33.4548
" />
<path d="M16.4998 33.4548
L16.6427 33.5024
" />
<path d="M16.6427 33.5024
L16.7379 33.5977
" />
<path d="M16.7379 33.5977
L16.7855 33.6929
" />
<path d="M16.7855 33.6929
L16.8331 33.8834
" />
<path d="M16.8331 33.8834
L16.8331 34.0262
" />
<path d="M16.8331 34.0262
L16.7855 34.2167
" />
<path d="M16.7855 34.2167
L16.7379 34.3120
" />
<path d="M16.7379 34.3120
L16.6427 34.4072
" />
<path d="M16.6427 34.4072
L16.4998 34.4548
" />
<path d="M16.4998 34.4548
L16.2617 34.4548
" />
<path d="M17.7855 34.4548
L17.2141 34.4548
" />
<path d="M17.4998 34.4548
L17.4998 33.4548
" />
<path d="M17.4998 33.4548
L17.4046 33.5977
" />
<path d="M17.4046 33.5977
L17.3093 33.6929
" />
<path d="M17.3093 33.6929
L17.2141 33.7405
" />
</g><text x="79.9998" y="35.5000"
textLength="1.9643" font-size="1.3333" lengthAdjust="spacingAndGlyphs"
text-anchor="middle" opacity="0" stroke-opacity="0">J3</text>
<g class="stroked-text"><desc>J3</desc>
<path d="M79.6665 34.4548
L79.6665 35.1691
" />
<path d="M79.6665 35.1691
L79.6188 35.3120
" />
<path d="M79.6188 35.3120
L79.5236 35.4072
" />
<path d="M79.5236 35.4072
L79.3808 35.4548
" />
<path d="M79.3808 35.4548
L79.2855 35.4548
" />
<path d="M80.0474 34.4548
L80.6665 34.4548
" />
<path d="M80.6665 34.4548
L80.3331 34.8358
" />
<path d="M80.3331 34.8358
L80.4760 34.8358
" />
<path d="M80.4760 34.8358
L80.5712 34.8834
" />
<path d="M80.5712 34.8834
L80.6188 34.9310
" />
<path d="M80.6188 34.9310
L80.6665 35.0262
" />
<path d="M80.6665 35.0262
L80.6665 35.2643
" />
<path d="M80.6665 35.2643
L80.6188 35.3596
" />
<path d="M80.6188 35.3596
L80.5712 35.4072
" />
<path d="M80.5712 35.4072
L80.4760 35.4548
" />
<path d="M80.4760 35.4548
L80.1903 35.4548
" />
<path d="M80.1903 35.4548
L80.0950 35.4072
" />
<path d="M80.0950 35.4072
L80.0474 35.3596
" />
</g></g>
<g style="fill:none; 
stroke:#585D84; stroke-width:0.1000; stroke-opacity:1; 
stroke-linecap:round; stroke-linejoin:round;">
<circle cx="47.9998" cy="113.7500" r="2.7800" /> 
</g>
<g style="fill:none; 
stroke:#585D84; stroke-width:0.2500; stroke-opacity:1; 
stroke-linecap:round; stroke-linejoin:round;">
<path d="M59.2098 31.1700
L59.1798 31.1700
" />
<path d="M59.2098 39.0400
L59.2098 31.1700
" />
<path d="M57.3798 39.0400
L59.2098 39.0400
" />
<path d="M55.1198 39.0400
L53.3798 39.0400
" />
<path d="M53.1298 31.1700
L54.8698 31.1700
" />
<path d="M36.8198 31.1700
L36.7298 31.1700
" />
<path d="M36.7298 31.1700
L36.7298 39.0400
" />
<path d="M36.7298 39.0400
L38.6198 39.0400
" />
</g>
<g style="fill:none; 
stroke:#585D84; stroke-width:0.3000; stroke-opacity:1; 
stroke-linecap:round; stroke-linejoin:round;">
<circle cx="38.7298" cy="30.0500" r="0.1500" /> 
</g>
<g style="fill:none; 
stroke:#585D84; stroke-width:0.0600; stroke-opacity:1; 
stroke-linecap:round; stroke-linejoin:round;">
<circle cx="36.9998" cy="30.6500" r="0.0300" /> 
</g>
<g style="fill:none; 
stroke:#585D84; stroke-width:0.1200; stroke-opacity:1; 
stroke-linecap:round; stroke-linejoin:round;">
<path d="M47.7385 22.2650
L48.2611 22.2650
" />
<path d="M47.7385 23.7350
L48.2611 23.7350
" />
<path style="fill:none; 
stroke:#585D84; stroke-width:0.1000; stroke-opacity:1; 
stroke-linecap:round; stroke-linejoin:round;fill:none"
d="M 48.9998,22.3750
46.9998,22.3750
46.9998,23.6250
48.9998,23.6250
Z" /> 
</g>
<g style="fill:none; 
stroke:#585D84; stroke-width:0.1200; stroke-opacity:1; 
stroke-linecap:round; stroke-linejoin:round;">
<path d="M47.7385 19.2650
L48.2611 19.2650
" />
<path d="M47.7385 20.7350
L48.2611 20.7350
" />
<path style="fill:none; 
stroke:#585D84; stroke-width:0.1000; stroke-opacity:1; 
stroke-linecap:round; stroke-linejoin:round;fill:none"
d="M 48.9998,19.3750
46.9998,19.3750
46.9998,20.6250
48.9998,20.6250
Z" /> 
</g>
<g style="fill:none; 
stroke:#585D84; stroke-width:0.1200; stroke-opacity:1; 
stroke-linecap:round; stroke-linejoin:round;">
<path d="M74.7385 24.2650
L75.2611 24.2650
" />
<path d="M74.7385 25.7350
L75.2611 25.7350
" />
<path style="fill:none; 
stroke:#585D84; stroke-width:0.1000; stroke-opacity:1; 
stroke-linecap:round; stroke-linejoin:round;fill:none"
d="M 75.9998,24.3750
73.9998,24.3750
73.9998,25.6250
75.9998,25.6250
Z" /> 
</g>
<g style="fill:none; 
stroke:#585D84; stroke-width:0.1200; stroke-opacity:1; 
stroke-linecap:round; stroke-linejoin:round;">
<path d="M52.2385 22.2650
L52.7611 22.2650
" />
<path d="M52.2385 23.7350
L52.7611 23.7350
" />
<path style="fill:none; 
stroke:#585D84; stroke-width:0.1000; stroke-opacity:1; 
stroke-linecap:round; stroke-linejoin:round;fill:none"
d="M 53.4998,22.3750
51.4998,22.3750
51.4998,23.6250
53.4998,23.6250
Z" /> 
</g>
<g style="fill:none; 
stroke:#585D84; stroke-width:0.1200; stroke-opacity:1; 
stroke-linecap:round; stroke-linejoin:round;">
<path d="M74.7385 27.2650
L75.2611 27.2650
" />
<path d="M74.7385 28.7350
L75.2611 28.7350
" />
<path style="fill:none; 
stroke:#585D84; stroke-width:0.1000; stroke-opacity:1; 
stroke-linecap:round; stroke-linejoin:round;fill:none"
d="M 75.9998,27.3750
73.9998,27.3750
73.9998,28.6250
75.9998,28.6250
Z" /> 
</g>
<g style="fill:none; 
stroke:#585D84; stroke-width:0.1500; stroke-opacity:1; 
stroke-linecap:round; stroke-linejoin:round;">
<path d="M8.7398 44.1100
L8.7398 44.7000
" />
<path d="M8.7398 47.8900
L8.7398 47.3000
" />
<path d="M4.9798 44.1100
L4.9798 47.8900
" />
<path d="M3.2598 44.1100
L8.7398 44.1100
" />
<path d="M3.2598 47.8900
L8.7398 47.8900
" />
</g>
<g style="fill:none; 
stroke:#585D84; stroke-width:0.0600; stroke-opacity:1; 
stroke-linecap:round; stroke-linejoin:round;">
<circle cx="3.3498" cy="47.8000" r="0.0300" /> 
<path style="fill:#585D84; fill-opacity:1.0000; stroke:none;fill-rule:evenodd;"
d="M 2.8751,44.7514
3.3323,44.7514
3.3323,44.0376
2.8751,44.0376
Z" /> 
<path style="fill:#585D84; fill-opacity:1.0000; stroke:none;fill-rule:evenodd;"
d="M 2.8751,47.9624
3.3323,47.9624
3.3323,47.2486
2.8751,47.2486
Z" /> 
</g>
<g style="fill:none; 
stroke:#585D84; stroke-width:0.1000; stroke-opacity:1; 
stroke-linecap:round; stroke-linejoin:round;">
<circle cx="79.9998" cy="113.7500" r="2.7800" /> 
</g>
<g style="fill:none; 
stroke:#585D84; stroke-width:0.1200; stroke-opacity:1; 
stroke-linecap:round; stroke-linejoin:round;">
<path d="M74.7385 21.2650
L75.2611 21.2650
" />
<path d="M74.7385 22.7350
L75.2611 22.7350
" />
<path style="fill:none; 
stroke:#585D84; stroke-width:0.1000; stroke-opacity:1; 
stroke-linecap:round; stroke-linejoin:round;fill:none"
d="M 75.9998,21.3750
73.9998,21.3750
73.9998,22.6250
75.9998,22.6250
Z" /> 
</g>
<g style="fill:none; 
stroke:#585D84; stroke-width:0.1500; stroke-opacity:1; 
stroke-linecap:round; stroke-linejoin:round;">
<path d="M19.6998 32.6400
L19.6998 32.9900
" />
<path d="M19.6998 35.3600
L19.6998 35.0100
" />
<path d="M15.6598 32.6400
L15.6598 35.3600
" />
<path d="M14.2998 32.6400
L19.6998 32.6400
" />
<path d="M14.2998 35.3600
L19.6998 35.3600
" />
</g>
<g style="fill:none; 
stroke:#585D84; stroke-width:0.0600; stroke-opacity:1; 
stroke-linecap:round; stroke-linejoin:round;">
<circle cx="14.1998" cy="35.3700" r="0.0300" /> 
<path style="fill:#585D84; fill-opacity:1.0000; stroke:none;fill-rule:evenodd;"
d="M 13.9176,33.0376
14.3748,33.0376
14.3748,32.5601
13.9176,32.5601
Z" /> 
<path style="fill:#585D84; fill-opacity:1.0000; stroke:none;fill-rule:evenodd;"
d="M 13.9176,35.4399
14.3748,35.4399
14.3748,34.9624
13.9176,34.9624
Z" /> 
</g>
<g style="fill:none; 
stroke:#585D84; stroke-width:0.2500; stroke-opacity:1; 
stroke-linecap:round; stroke-linejoin:round;">
<path d="M91.2098 31.1700
L91.1798 31.1700
" />
<path d="M91.2098 39.0400
L91.2098 31.1700
" />
<path d="M89.3798 39.0400
L91.2098 39.0400
" />
<path d="M87.1198 39.0400
L85.3798 39.0400
" />
<path d="M85.1298 31.1700
L86.8698 31.1700
" />
<path d="M68.8198 31.1700
L68.7298 31.1700
" />
<path d="M68.7298 31.1700
L68.7298 39.0400
" />
<path d="M68.7298 39.0400
L70.6198 39.0400
" />
</g>
<g style="fill:none; 
stroke:#585D84; stroke-width:0.3000; stroke-opacity:1; 
stroke-linecap:round; stroke-linejoin:round;">
<circle cx="70.7298" cy="30.0500" r="0.1500" /> 
</g>
<g style="fill:none; 
stroke:#585D84; stroke-width:0.0600; stroke-opacity:1; 
stroke-linecap:round; stroke-linejoin:round;">
<circle cx="68.9998" cy="30.6500" r="0.0300" /> 
</g>
<g style="fill:none; 
stroke:#E8B2A7; stroke-width:0.1200; stroke-opacity:1; 
stroke-linecap:round; stroke-linejoin:round;">
<text x="47.9998" y="29.4500"
textLength="1.5714" font-size="1.0667" lengthAdjust="spacingAndGlyphs"
text-anchor="middle" opacity="0" stroke-opacity="0">J4</text>
<g class="stroked-text"><desc>J4</desc>
<path d="M47.7331 28.6139
L47.7331 29.1853
" />
<path d="M47.7331 29.1853
L47.6950 29.2996
" />
<path d="M47.6950 29.2996
L47.6188 29.3758
" />
<path d="M47.6188 29.3758
L47.5046 29.4139
" />
<path d="M47.5046 29.4139
L47.4284 29.4139
" />
<path d="M48.4569 28.8805
L48.4569 29.4139
" />
<path d="M48.2665 28.5758
L48.0760 29.1472
" />
<path d="M48.0760 29.1472
L48.5712 29.1472
" />
</g><text x="79.9998" y="29.4500"
textLength="1.5714" font-size="1.0667" lengthAdjust="spacingAndGlyphs"
text-anchor="middle" opacity="0" stroke-opacity="0">J3</text>
<g class="stroked-text"><desc>J3</desc>
<path d="M79.7331 28.6139
L79.7331 29.1853
" />
<path d="M79.7331 29.1853
L79.6950 29.2996
" />
<path d="M79.6950 29.2996
L79.6188 29.3758
" />
<path d="M79.6188 29.3758
L79.5046 29.4139
" />
<path d="M79.5046 29.4139
L79.4284 29.4139
" />
<path d="M80.0379 28.6139
L80.5331 28.6139
" />
<path d="M80.5331 28.6139
L80.2665 28.9186
" />
<path d="M80.2665 28.9186
L80.3808 28.9186
" />
<path d="M80.3808 28.9186
L80.4569 28.9567
" />
<path d="M80.4569 28.9567
L80.4950 28.9948
" />
<path d="M80.4950 28.9948
L80.5331 29.0710
" />
<path d="M80.5331 29.0710
L80.5331 29.2615
" />
<path d="M80.5331 29.2615
L80.4950 29.3377
" />
<path d="M80.4950 29.3377
L80.4569 29.3758
" />
<path d="M80.4569 29.3758
L80.3808 29.4139
" />
<path d="M80.3808 29.4139
L80.1522 29.4139
" />
<path d="M80.1522 29.4139
L80.0760 29.3758
" />
<path d="M80.0760 29.3758
L80.0379 29.3377
" />
</g></g>
<g style="fill:none; 
stroke:#D0D2CD; stroke-width:0.1500; stroke-opacity:1; 
stroke-linecap:round; stroke-linejoin:round;">
<path d="M99.9998 0.0000
L-0.0002 0.0000
" />
<path d="M99.9998 120.0000
L99.9998 0.0000
" />
<path d="M-0.0002 0.0000
L-0.0002 120.0000
" />
<path d="M-0.0002 120.0000
L99.9998 120.0000
" />
</g>
<g style="fill:none; 
stroke:#C08EC2; stroke-width:0.1500; stroke-opacity:1; 
stroke-linecap:round; stroke-linejoin:round;">
<path d="M98.4998 43.5000
L58.4998 43.5000
" />
<path d="M98.4998 98.5000
L98.4998 43.5000
" />
<path d="M90.9998 34.7500
L68.9998 34.7500
" />
<path d="M90.9998 114.7500
L90.9998 34.7500
" />
<path d="M68.9998 34.7500
L68.9998 114.7500
" />
<path d="M68.9998 114.7500
L90.9998 114.7500
" />
<path d="M58.9998 34.7500
L36.9998 34.7500
" />
<path d="M58.9998 114.7500
L58.9998 34.7500
" />
<path d="M58.4998 43.5000
L58.4998 98.5000
" />
<path d="M58.4998 98.5000
L98.4998 98.5000
" />
<path d="M36.9998 34.7500
L36.9998 114.7500
" />
<path d="M36.9998 114.7500
L58.9998 114.7500
" />
<text x="79.9998" y="96.5000"
transform="scale(-1 1) translate(-159.999600 0)"
textLength="18.2500" font-size="1.3333" lengthAdjust="spacingAndGlyphs"
text-anchor="middle" opacity="0" stroke-opacity="0">BOTTOM: SSD 1 / 2280</text>
<g class="stroked-text"><desc>BOTTOM: SSD 1 / 2280</desc>
<path d="M88.4284 95.9310
L88.2855 95.9786
" />
<path d="M88.2855 95.9786
L88.2379 96.0262
" />
<path d="M88.2379 96.0262
L88.1903 96.1215
" />
<path d="M88.1903 96.1215
L88.1903 96.2643
" />
<path d="M88.1903 96.2643
L88.2379 96.3596
" />
<path d="M88.2379 96.3596
L88.2855 96.4072
" />
<path d="M88.2855 96.4072
L88.3808 96.4548
" />
<path d="M88.3808 96.4548
L88.7617 96.4548
" />
<path d="M88.7617 96.4548
L88.7617 95.4548
" />
<path d="M88.7617 95.4548
L88.4284 95.4548
" />
<path d="M88.4284 95.4548
L88.3331 95.5024
" />
<path d="M88.3331 95.5024
L88.2855 95.5501
" />
<path d="M88.2855 95.5501
L88.2379 95.6453
" />
<path d="M88.2379 95.6453
L88.2379 95.7405
" />
<path d="M88.2379 95.7405
L88.2855 95.8358
" />
<path d="M88.2855 95.8358
L88.3331 95.8834
" />
<path d="M88.3331 95.8834
L88.4284 95.9310
" />
<path d="M88.4284 95.9310
L88.7617 95.9310
" />
<path d="M87.5712 95.4548
L87.3808 95.4548
" />
<path d="M87.3808 95.4548
L87.2855 95.5024
" />
<path d="M87.2855 95.5024
L87.1903 95.5977
" />
<path d="M87.1903 95.5977
L87.1427 95.7882
" />
<path d="M87.1427 95.7882
L87.1427 96.1215
" />
<path d="M87.1427 96.1215
L87.1903 96.3120
" />
<path d="M87.1903 96.3120
L87.2855 96.4072
" />
<path d="M87.2855 96.4072
L87.3808 96.4548
" />
<path d="M87.3808 96.4548
L87.5712 96.4548
" />
<path d="M87.5712 96.4548
L87.6665 96.4072
" />
<path d="M87.6665 96.4072
L87.7617 96.3120
" />
<path d="M87.7617 96.3120
L87.8093 96.1215
" />
<path d="M87.8093 96.1215
L87.8093 95.7882
" />
<path d="M87.8093 95.7882
L87.7617 95.5977
" />
<path d="M87.7617 95.5977
L87.6665 95.5024
" />
<path d="M87.6665 95.5024
L87.5712 95.4548
" />
<path d="M86.8569 95.4548
L86.2855 95.4548
" />
<path d="M86.5712 96.4548
L86.5712 95.4548
" />
<path d="M86.0950 95.4548
L85.5236 95.4548
" />
<path d="M85.8093 96.4548
L85.8093 95.4548
" />
<path d="M84.9998 95.4548
L84.8093 95.4548
" />
<path d="M84.8093 95.4548
L84.7141 95.5024
" />
<path d="M84.7141 95.5024
L84.6188 95.5977
" />
<path d="M84.6188 95.5977
L84.5712 95.7882
" />
<path d="M84.5712 95.7882
L84.5712 96.1215
" />
<path d="M84.5712 96.1215
L84.6188 96.3120
" />
<path d="M84.6188 96.3120
L84.7141 96.4072
" />
<path d="M84.7141 96.4072
L84.8093 96.4548
" />
<path d="M84.8093 96.4548
L84.9998 96.4548
" />
<path d="M84.9998 96.4548
L85.0950 96.4072
" />
<path d="M85.0950 96.4072
L85.1903 96.3120
" />
<path d="M85.1903 96.3120
L85.2379 96.1215
" />
<path d="M85.2379 96.1215
L85.2379 95.7882
" />
<path d="M85.2379 95.7882
L85.1903 95.5977
" />
<path d="M85.1903 95.5977
L85.0950 95.5024
" />
<path d="M85.0950 95.5024
L84.9998 95.4548
" />
<path d="M84.1427 96.4548
L84.1427 95.4548
" />
<path d="M84.1427 95.4548
L83.8093 96.1691
" />
<path d="M83.8093 96.1691
L83.4760 95.4548
" />
<path d="M83.4760 95.4548
L83.4760 96.4548
" />
<path d="M82.9998 96.3596
L82.9522 96.4072
" />
<path d="M82.9522 96.4072
L82.9998 96.4548
" />
<path d="M82.9998 96.4548
L83.0474 96.4072
" />
<path d="M83.0474 96.4072
L82.9998 96.3596
" />
<path d="M82.9998 96.3596
L82.9998 96.4548
" />
<path d="M82.9998 95.8358
L82.9522 95.8834
" />
<path d="M82.9522 95.8834
L82.9998 95.9310
" />
<path d="M82.9998 95.9310
L83.0474 95.8834
" />
<path d="M83.0474 95.8834
L82.9998 95.8358
" />
<path d="M82.9998 95.8358
L82.9998 95.9310
" />
<path d="M81.8093 96.4072
L81.6665 96.4548
" />
<path d="M81.6665 96.4548
L81.4284 96.4548
" />
<path d="M81.4284 96.4548
L81.3331 96.4072
" />
<path d="M81.3331 96.4072
L81.2855 96.3596
" />
<path d="M81.2855 96.3596
L81.2379 96.2643
" />
<path d="M81.2379 96.2643
L81.2379 96.1691
" />
<path d="M81.2379 96.1691
L81.2855 96.0739
" />
<path d="M81.2855 96.0739
L81.3331 96.0262
" />
<path d="M81.3331 96.0262
L81.4284 95.9786
" />
<path d="M81.4284 95.9786
L81.6188 95.9310
" />
<path d="M81.6188 95.9310
L81.7141 95.8834
" />
<path d="M81.7141 95.8834
L81.7617 95.8358
" />
<path d="M81.7617 95.8358
L81.8093 95.7405
" />
<path d="M81.8093 95.7405
L81.8093 95.6453
" />
<path d="M81.8093 95.6453
L81.7617 95.5501
" />
<path d="M81.7617 95.5501
L81.7141 95.5024
" />
<path d="M81.7141 95.5024
L81.6188 95.4548
" />
<path d="M81.6188 95.4548
L81.3808 95.4548
" />
<path d="M81.3808 95.4548
L81.2379 95.5024
" />
<path d="M80.8569 96.4072
L80.7141 96.4548
" />
<path d="M80.7141 96.4548
L80.4760 96.4548
" />
<path d="M80.4760 96.4548
L80.3808 96.4072
" />
<path d="M80.3808 96.4072
L80.3331 96.3596
" />
<path d="M80.3331 96.3596
L80.2855 96.2643
" />
<path d="M80.2855 96.2643
L80.2855 96.1691
" />
<path d="M80.2855 96.1691
L80.3331 96.0739
" />
<path d="M80.3331 96.0739
L80.3808 96.0262
" />
<path d="M80.3808 96.0262
L80.4760 95.9786
" />
<path d="M80.4760 95.9786
L80.6665 95.9310
" />
<path d="M80.6665 95.9310
L80.7617 95.8834
" />
<path d="M80.7617 95.8834
L80.8093 95.8358
" />
<path d="M80.8093 95.8358
L80.8569 95.7405
" />
<path d="M80.8569 95.7405
L80.8569 95.6453
" />
<path d="M80.8569 95.6453
L80.8093 95.5501
" />
<path d="M80.8093 95.5501
L80.7617 95.5024
" />
<path d="M80.7617 95.5024
L80.6665 95.4548
" />
<path d="M80.6665 95.4548
L80.4284 95.4548
" />
<path d="M80.4284 95.4548
L80.2855 95.5024
" />
<path d="M79.8569 96.4548
L79.8569 95.4548
" />
<path d="M79.8569 95.4548
L79.6188 95.4548
" />
<path d="M79.6188 95.4548
L79.4760 95.5024
" />
<path d="M79.4760 95.5024
L79.3808 95.5977
" />
<path d="M79.3808 95.5977
L79.3331 95.6929
" />
<path d="M79.3331 95.6929
L79.2855 95.8834
" />
<path d="M79.2855 95.8834
L79.2855 96.0262
" />
<path d="M79.2855 96.0262
L79.3331 96.2167
" />
<path d="M79.3331 96.2167
L79.3808 96.3120
" />
<path d="M79.3808 96.3120
L79.4760 96.4072
" />
<path d="M79.4760 96.4072
L79.6188 96.4548
" />
<path d="M79.6188 96.4548
L79.8569 96.4548
" />
<path d="M77.5712 96.4548
L78.1427 96.4548
" />
<path d="M77.8569 96.4548
L77.8569 95.4548
" />
<path d="M77.8569 95.4548
L77.9522 95.5977
" />
<path d="M77.9522 95.5977
L78.0474 95.6929
" />
<path d="M78.0474 95.6929
L78.1427 95.7405
" />
<path d="M75.6665 95.4072
L76.5236 96.6929
" />
<path d="M74.6188 95.5501
L74.5712 95.5024
" />
<path d="M74.5712 95.5024
L74.4760 95.4548
" />
<path d="M74.4760 95.4548
L74.2379 95.4548
" />
<path d="M74.2379 95.4548
L74.1427 95.5024
" />
<path d="M74.1427 95.5024
L74.0950 95.5501
" />
<path d="M74.0950 95.5501
L74.0474 95.6453
" />
<path d="M74.0474 95.6453
L74.0474 95.7405
" />
<path d="M74.0474 95.7405
L74.0950 95.8834
" />
<path d="M74.0950 95.8834
L74.6665 96.4548
" />
<path d="M74.6665 96.4548
L74.0474 96.4548
" />
<path d="M73.6665 95.5501
L73.6188 95.5024
" />
<path d="M73.6188 95.5024
L73.5236 95.4548
" />
<path d="M73.5236 95.4548
L73.2855 95.4548
" />
<path d="M73.2855 95.4548
L73.1903 95.5024
" />
<path d="M73.1903 95.5024
L73.1427 95.5501
" />
<path d="M73.1427 95.5501
L73.0950 95.6453
" />
<path d="M73.0950 95.6453
L73.0950 95.7405
" />
<path d="M73.0950 95.7405
L73.1427 95.8834
" />
<path d="M73.1427 95.8834
L73.7141 96.4548
" />
<path d="M73.7141 96.4548
L73.0950 96.4548
" />
<path d="M72.5236 95.8834
L72.6188 95.8358
" />
<path d="M72.6188 95.8358
L72.6665 95.7882
" />
<path d="M72.6665 95.7882
L72.7141 95.6929
" />
<path d="M72.7141 95.6929
L72.7141 95.6453
" />
<path d="M72.7141 95.6453
L72.6665 95.5501
" />
<path d="M72.6665 95.5501
L72.6188 95.5024
" />
<path d="M72.6188 95.5024
L72.5236 95.4548
" />
<path d="M72.5236 95.4548
L72.3331 95.4548
" />
<path d="M72.3331 95.4548
L72.2379 95.5024
" />
<path d="M72.2379 95.5024
L72.1903 95.5501
" />
<path d="M72.1903 95.5501
L72.1427 95.6453
" />
<path d="M72.1427 95.6453
L72.1427 95.6929
" />
<path d="M72.1427 95.6929
L72.1903 95.7882
" />
<path d="M72.1903 95.7882
L72.2379 95.8358
" />
<path d="M72.2379 95.8358
L72.3331 95.8834
" />
<path d="M72.3331 95.8834
L72.5236 95.8834
" />
<path d="M72.5236 95.8834
L72.6188 95.9310
" />
<path d="M72.6188 95.9310
L72.6665 95.9786
" />
<path d="M72.6665 95.9786
L72.7141 96.0739
" />
<path d="M72.7141 96.0739
L72.7141 96.2643
" />
<path d="M72.7141 96.2643
L72.6665 96.3596
" />
<path d="M72.6665 96.3596
L72.6188 96.4072
" />
<path d="M72.6188 96.4072
L72.5236 96.4548
" />
<path d="M72.5236 96.4548
L72.3331 96.4548
" />
<path d="M72.3331 96.4548
L72.2379 96.4072
" />
<path d="M72.2379 96.4072
L72.1903 96.3596
" />
<path d="M72.1903 96.3596
L72.1427 96.2643
" />
<path d="M72.1427 96.2643
L72.1427 96.0739
" />
<path d="M72.1427 96.0739
L72.1903 95.9786
" />
<path d="M72.1903 95.9786
L72.2379 95.9310
" />
<path d="M72.2379 95.9310
L72.3331 95.8834
" />
<path d="M71.5236 95.4548
L71.4284 95.4548
" />
<path d="M71.4284 95.4548
L71.3331 95.5024
" />
<path d="M71.3331 95.5024
L71.2855 95.5501
" />
<path d="M71.2855 95.5501
L71.2379 95.6453
" />
<path d="M71.2379 95.6453
L71.1903 95.8358
" />
<path d="M71.1903 95.8358
L71.1903 96.0739
" />
<path d="M71.1903 96.0739
L71.2379 96.2643
" />
<path d="M71.2379 96.2643
L71.2855 96.3596
" />
<path d="M71.2855 96.3596
L71.3331 96.4072
" />
<path d="M71.3331 96.4072
L71.4284 96.4548
" />
<path d="M71.4284 96.4548
L71.5236 96.4548
" />
<path d="M71.5236 96.4548
L71.6188 96.4072
" />
<path d="M71.6188 96.4072
L71.6665 96.3596
" />
<path d="M71.6665 96.3596
L71.7141 96.2643
" />
<path d="M71.7141 96.2643
L71.7617 96.0739
" />
<path d="M71.7617 96.0739
L71.7617 95.8358
" />
<path d="M71.7617 95.8358
L71.7141 95.6453
" />
<path d="M71.7141 95.6453
L71.6665 95.5501
" />
<path d="M71.6665 95.5501
L71.6188 95.5024
" />
<path d="M71.6188 95.5024
L71.5236 95.4548
" />
</g><text x="65.9998" y="16.5000"
transform="scale(-1 1) translate(-131.999600 0)"
textLength="29.2976" font-size="1.3333" lengthAdjust="spacingAndGlyphs"
text-anchor="middle" opacity="0" stroke-opacity="0">PoE MODULE MECHANICS UNRESOLVED</text>
<g class="stroked-text"><desc>PoE MODULE MECHANICS UNRESOLVED</desc>
<path d="M80.2855 16.4548
L80.2855 15.4548
" />
<path d="M80.2855 15.4548
L79.9046 15.4548
" />
<path d="M79.9046 15.4548
L79.8093 15.5024
" />
<path d="M79.8093 15.5024
L79.7617 15.5501
" />
<path d="M79.7617 15.5501
L79.7141 15.6453
" />
<path d="M79.7141 15.6453
L79.7141 15.7882
" />
<path d="M79.7141 15.7882
L79.7617 15.8834
" />
<path d="M79.7617 15.8834
L79.8093 15.9310
" />
<path d="M79.8093 15.9310
L79.9046 15.9786
" />
<path d="M79.9046 15.9786
L80.2855 15.9786
" />
<path d="M79.1427 16.4548
L79.2379 16.4072
" />
<path d="M79.2379 16.4072
L79.2855 16.3596
" />
<path d="M79.2855 16.3596
L79.3331 16.2643
" />
<path d="M79.3331 16.2643
L79.3331 15.9786
" />
<path d="M79.3331 15.9786
L79.2855 15.8834
" />
<path d="M79.2855 15.8834
L79.2379 15.8358
" />
<path d="M79.2379 15.8358
L79.1427 15.7882
" />
<path d="M79.1427 15.7882
L78.9998 15.7882
" />
<path d="M78.9998 15.7882
L78.9046 15.8358
" />
<path d="M78.9046 15.8358
L78.8569 15.8834
" />
<path d="M78.8569 15.8834
L78.8093 15.9786
" />
<path d="M78.8093 15.9786
L78.8093 16.2643
" />
<path d="M78.8093 16.2643
L78.8569 16.3596
" />
<path d="M78.8569 16.3596
L78.9046 16.4072
" />
<path d="M78.9046 16.4072
L78.9998 16.4548
" />
<path d="M78.9998 16.4548
L79.1427 16.4548
" />
<path d="M78.3808 15.9310
L78.0474 15.9310
" />
<path d="M77.9046 16.4548
L78.3808 16.4548
" />
<path d="M78.3808 16.4548
L78.3808 15.4548
" />
<path d="M78.3808 15.4548
L77.9046 15.4548
" />
<path d="M76.7141 16.4548
L76.7141 15.4548
" />
<path d="M76.7141 15.4548
L76.3808 16.1691
" />
<path d="M76.3808 16.1691
L76.0474 15.4548
" />
<path d="M76.0474 15.4548
L76.0474 16.4548
" />
<path d="M75.3808 15.4548
L75.1903 15.4548
" />
<path d="M75.1903 15.4548
L75.0950 15.5024
" />
<path d="M75.0950 15.5024
L74.9998 15.5977
" />
<path d="M74.9998 15.5977
L74.9522 15.7882
" />
<path d="M74.9522 15.7882
L74.9522 16.1215
" />
<path d="M74.9522 16.1215
L74.9998 16.3120
" />
<path d="M74.9998 16.3120
L75.0950 16.4072
" />
<path d="M75.0950 16.4072
L75.1903 16.4548
" />
<path d="M75.1903 16.4548
L75.3808 16.4548
" />
<path d="M75.3808 16.4548
L75.4760 16.4072
" />
<path d="M75.4760 16.4072
L75.5712 16.3120
" />
<path d="M75.5712 16.3120
L75.6188 16.1215
" />
<path d="M75.6188 16.1215
L75.6188 15.7882
" />
<path d="M75.6188 15.7882
L75.5712 15.5977
" />
<path d="M75.5712 15.5977
L75.4760 15.5024
" />
<path d="M75.4760 15.5024
L75.3808 15.4548
" />
<path d="M74.5236 16.4548
L74.5236 15.4548
" />
<path d="M74.5236 15.4548
L74.2855 15.4548
" />
<path d="M74.2855 15.4548
L74.1427 15.5024
" />
<path d="M74.1427 15.5024
L74.0474 15.5977
" />
<path d="M74.0474 15.5977
L73.9998 15.6929
" />
<path d="M73.9998 15.6929
L73.9522 15.8834
" />
<path d="M73.9522 15.8834
L73.9522 16.0262
" />
<path d="M73.9522 16.0262
L73.9998 16.2167
" />
<path d="M73.9998 16.2167
L74.0474 16.3120
" />
<path d="M74.0474 16.3120
L74.1427 16.4072
" />
<path d="M74.1427 16.4072
L74.2855 16.4548
" />
<path d="M74.2855 16.4548
L74.5236 16.4548
" />
<path d="M73.5236 15.4548
L73.5236 16.2643
" />
<path d="M73.5236 16.2643
L73.4760 16.3596
" />
<path d="M73.4760 16.3596
L73.4284 16.4072
" />
<path d="M73.4284 16.4072
L73.3331 16.4548
" />
<path d="M73.3331 16.4548
L73.1427 16.4548
" />
<path d="M73.1427 16.4548
L73.0474 16.4072
" />
<path d="M73.0474 16.4072
L72.9998 16.3596
" />
<path d="M72.9998 16.3596
L72.9522 16.2643
" />
<path d="M72.9522 16.2643
L72.9522 15.4548
" />
<path d="M71.9998 16.4548
L72.4760 16.4548
" />
<path d="M72.4760 16.4548
L72.4760 15.4548
" />
<path d="M71.6665 15.9310
L71.3331 15.9310
" />
<path d="M71.1903 16.4548
L71.6665 16.4548
" />
<path d="M71.6665 16.4548
L71.6665 15.4548
" />
<path d="M71.6665 15.4548
L71.1903 15.4548
" />
<path d="M69.9998 16.4548
L69.9998 15.4548
" />
<path d="M69.9998 15.4548
L69.6665 16.1691
" />
<path d="M69.6665 16.1691
L69.3331 15.4548
" />
<path d="M69.3331 15.4548
L69.3331 16.4548
" />
<path d="M68.8569 15.9310
L68.5236 15.9310
" />
<path d="M68.3808 16.4548
L68.8569 16.4548
" />
<path d="M68.8569 16.4548
L68.8569 15.4548
" />
<path d="M68.8569 15.4548
L68.3808 15.4548
" />
<path d="M67.3808 16.3596
L67.4284 16.4072
" />
<path d="M67.4284 16.4072
L67.5712 16.4548
" />
<path d="M67.5712 16.4548
L67.6665 16.4548
" />
<path d="M67.6665 16.4548
L67.8093 16.4072
" />
<path d="M67.8093 16.4072
L67.9046 16.3120
" />
<path d="M67.9046 16.3120
L67.9522 16.2167
" />
<path d="M67.9522 16.2167
L67.9998 16.0262
" />
<path d="M67.9998 16.0262
L67.9998 15.8834
" />
<path d="M67.9998 15.8834
L67.9522 15.6929
" />
<path d="M67.9522 15.6929
L67.9046 15.5977
" />
<path d="M67.9046 15.5977
L67.8093 15.5024
" />
<path d="M67.8093 15.5024
L67.6665 15.4548
" />
<path d="M67.6665 15.4548
L67.5712 15.4548
" />
<path d="M67.5712 15.4548
L67.4284 15.5024
" />
<path d="M67.4284 15.5024
L67.3808 15.5501
" />
<path d="M66.9522 16.4548
L66.9522 15.4548
" />
<path d="M66.9522 15.9310
L66.3808 15.9310
" />
<path d="M66.3808 16.4548
L66.3808 15.4548
" />
<path d="M65.9522 16.1691
L65.4760 16.1691
" />
<path d="M66.0474 16.4548
L65.7141 15.4548
" />
<path d="M65.7141 15.4548
L65.3808 16.4548
" />
<path d="M65.0474 16.4548
L65.0474 15.4548
" />
<path d="M65.0474 15.4548
L64.4760 16.4548
" />
<path d="M64.4760 16.4548
L64.4760 15.4548
" />
<path d="M63.9998 16.4548
L63.9998 15.4548
" />
<path d="M62.9522 16.3596
L62.9998 16.4072
" />
<path d="M62.9998 16.4072
L63.1427 16.4548
" />
<path d="M63.1427 16.4548
L63.2379 16.4548
" />
<path d="M63.2379 16.4548
L63.3808 16.4072
" />
<path d="M63.3808 16.4072
L63.4760 16.3120
" />
<path d="M63.4760 16.3120
L63.5236 16.2167
" />
<path d="M63.5236 16.2167
L63.5712 16.0262
" />
<path d="M63.5712 16.0262
L63.5712 15.8834
" />
<path d="M63.5712 15.8834
L63.5236 15.6929
" />
<path d="M63.5236 15.6929
L63.4760 15.5977
" />
<path d="M63.4760 15.5977
L63.3808 15.5024
" />
<path d="M63.3808 15.5024
L63.2379 15.4548
" />
<path d="M63.2379 15.4548
L63.1427 15.4548
" />
<path d="M63.1427 15.4548
L62.9998 15.5024
" />
<path d="M62.9998 15.5024
L62.9522 15.5501
" />
<path d="M62.5712 16.4072
L62.4284 16.4548
" />
<path d="M62.4284 16.4548
L62.1903 16.4548
" />
<path d="M62.1903 16.4548
L62.0950 16.4072
" />
<path d="M62.0950 16.4072
L62.0474 16.3596
" />
<path d="M62.0474 16.3596
L61.9998 16.2643
" />
<path d="M61.9998 16.2643
L61.9998 16.1691
" />
<path d="M61.9998 16.1691
L62.0474 16.0739
" />
<path d="M62.0474 16.0739
L62.0950 16.0262
" />
<path d="M62.0950 16.0262
L62.1903 15.9786
" />
<path d="M62.1903 15.9786
L62.3808 15.9310
" />
<path d="M62.3808 15.9310
L62.4760 15.8834
" />
<path d="M62.4760 15.8834
L62.5236 15.8358
" />
<path d="M62.5236 15.8358
L62.5712 15.7405
" />
<path d="M62.5712 15.7405
L62.5712 15.6453
" />
<path d="M62.5712 15.6453
L62.5236 15.5501
" />
<path d="M62.5236 15.5501
L62.4760 15.5024
" />
<path d="M62.4760 15.5024
L62.3808 15.4548
" />
<path d="M62.3808 15.4548
L62.1427 15.4548
" />
<path d="M62.1427 15.4548
L61.9998 15.5024
" />
<path d="M60.8093 15.4548
L60.8093 16.2643
" />
<path d="M60.8093 16.2643
L60.7617 16.3596
" />
<path d="M60.7617 16.3596
L60.7141 16.4072
" />
<path d="M60.7141 16.4072
L60.6188 16.4548
" />
<path d="M60.6188 16.4548
L60.4284 16.4548
" />
<path d="M60.4284 16.4548
L60.3331 16.4072
" />
<path d="M60.3331 16.4072
L60.2855 16.3596
" />
<path d="M60.2855 16.3596
L60.2379 16.2643
" />
<path d="M60.2379 16.2643
L60.2379 15.4548
" />
<path d="M59.7617 16.4548
L59.7617 15.4548
" />
<path d="M59.7617 15.4548
L59.1903 16.4548
" />
<path d="M59.1903 16.4548
L59.1903 15.4548
" />
<path d="M58.1427 16.4548
L58.4760 15.9786
" />
<path d="M58.7141 16.4548
L58.7141 15.4548
" />
<path d="M58.7141 15.4548
L58.3331 15.4548
" />
<path d="M58.3331 15.4548
L58.2379 15.5024
" />
<path d="M58.2379 15.5024
L58.1903 15.5501
" />
<path d="M58.1903 15.5501
L58.1427 15.6453
" />
<path d="M58.1427 15.6453
L58.1427 15.7882
" />
<path d="M58.1427 15.7882
L58.1903 15.8834
" />
<path d="M58.1903 15.8834
L58.2379 15.9310
" />
<path d="M58.2379 15.9310
L58.3331 15.9786
" />
<path d="M58.3331 15.9786
L58.7141 15.9786
" />
<path d="M57.7141 15.9310
L57.3808 15.9310
" />
<path d="M57.2379 16.4548
L57.7141 16.4548
" />
<path d="M57.7141 16.4548
L57.7141 15.4548
" />
<path d="M57.7141 15.4548
L57.2379 15.4548
" />
<path d="M56.8569 16.4072
L56.7141 16.4548
" />
<path d="M56.7141 16.4548
L56.4760 16.4548
" />
<path d="M56.4760 16.4548
L56.3808 16.4072
" />
<path d="M56.3808 16.4072
L56.3331 16.3596
" />
<path d="M56.3331 16.3596
L56.2855 16.2643
" />
<path d="M56.2855 16.2643
L56.2855 16.1691
" />
<path d="M56.2855 16.1691
L56.3331 16.0739
" />
<path d="M56.3331 16.0739
L56.3808 16.0262
" />
<path d="M56.3808 16.0262
L56.4760 15.9786
" />
<path d="M56.4760 15.9786
L56.6665 15.9310
" />
<path d="M56.6665 15.9310
L56.7617 15.8834
" />
<path d="M56.7617 15.8834
L56.8093 15.8358
" />
<path d="M56.8093 15.8358
L56.8569 15.7405
" />
<path d="M56.8569 15.7405
L56.8569 15.6453
" />
<path d="M56.8569 15.6453
L56.8093 15.5501
" />
<path d="M56.8093 15.5501
L56.7617 15.5024
" />
<path d="M56.7617 15.5024
L56.6665 15.4548
" />
<path d="M56.6665 15.4548
L56.4284 15.4548
" />
<path d="M56.4284 15.4548
L56.2855 15.5024
" />
<path d="M55.6665 15.4548
L55.4760 15.4548
" />
<path d="M55.4760 15.4548
L55.3808 15.5024
" />
<path d="M55.3808 15.5024
L55.2855 15.5977
" />
<path d="M55.2855 15.5977
L55.2379 15.7882
" />
<path d="M55.2379 15.7882
L55.2379 16.1215
" />
<path d="M55.2379 16.1215
L55.2855 16.3120
" />
<path d="M55.2855 16.3120
L55.3808 16.4072
" />
<path d="M55.3808 16.4072
L55.4760 16.4548
" />
<path d="M55.4760 16.4548
L55.6665 16.4548
" />
<path d="M55.6665 16.4548
L55.7617 16.4072
" />
<path d="M55.7617 16.4072
L55.8569 16.3120
" />
<path d="M55.8569 16.3120
L55.9046 16.1215
" />
<path d="M55.9046 16.1215
L55.9046 15.7882
" />
<path d="M55.9046 15.7882
L55.8569 15.5977
" />
<path d="M55.8569 15.5977
L55.7617 15.5024
" />
<path d="M55.7617 15.5024
L55.6665 15.4548
" />
<path d="M54.3331 16.4548
L54.8093 16.4548
" />
<path d="M54.8093 16.4548
L54.8093 15.4548
" />
<path d="M54.1427 15.4548
L53.8093 16.4548
" />
<path d="M53.8093 16.4548
L53.4760 15.4548
" />
<path d="M53.1427 15.9310
L52.8093 15.9310
" />
<path d="M52.6665 16.4548
L53.1427 16.4548
" />
<path d="M53.1427 16.4548
L53.1427 15.4548
" />
<path d="M53.1427 15.4548
L52.6665 15.4548
" />
<path d="M52.2379 16.4548
L52.2379 15.4548
" />
<path d="M52.2379 15.4548
L51.9998 15.4548
" />
<path d="M51.9998 15.4548
L51.8569 15.5024
" />
<path d="M51.8569 15.5024
L51.7617 15.5977
" />
<path d="M51.7617 15.5977
L51.7141 15.6929
" />
<path d="M51.7141 15.6929
L51.6665 15.8834
" />
<path d="M51.6665 15.8834
L51.6665 16.0262
" />
<path d="M51.6665 16.0262
L51.7141 16.2167
" />
<path d="M51.7141 16.2167
L51.7617 16.3120
" />
<path d="M51.7617 16.3120
L51.8569 16.4072
" />
<path d="M51.8569 16.4072
L51.9998 16.4548
" />
<path d="M51.9998 16.4548
L52.2379 16.4548
" />
</g><text x="47.9998" y="96.5000"
transform="scale(-1 1) translate(-95.999600 0)"
textLength="18.2500" font-size="1.3333" lengthAdjust="spacingAndGlyphs"
text-anchor="middle" opacity="0" stroke-opacity="0">BOTTOM: SSD 2 / 2280</text>
<g class="stroked-text"><desc>BOTTOM: SSD 2 / 2280</desc>
<path d="M56.4284 95.9310
L56.2855 95.9786
" />
<path d="M56.2855 95.9786
L56.2379 96.0262
" />
<path d="M56.2379 96.0262
L56.1903 96.1215
" />
<path d="M56.1903 96.1215
L56.1903 96.2643
" />
<path d="M56.1903 96.2643
L56.2379 96.3596
" />
<path d="M56.2379 96.3596
L56.2855 96.4072
" />
<path d="M56.2855 96.4072
L56.3808 96.4548
" />
<path d="M56.3808 96.4548
L56.7617 96.4548
" />
<path d="M56.7617 96.4548
L56.7617 95.4548
" />
<path d="M56.7617 95.4548
L56.4284 95.4548
" />
<path d="M56.4284 95.4548
L56.3331 95.5024
" />
<path d="M56.3331 95.5024
L56.2855 95.5501
" />
<path d="M56.2855 95.5501
L56.2379 95.6453
" />
<path d="M56.2379 95.6453
L56.2379 95.7405
" />
<path d="M56.2379 95.7405
L56.2855 95.8358
" />
<path d="M56.2855 95.8358
L56.3331 95.8834
" />
<path d="M56.3331 95.8834
L56.4284 95.9310
" />
<path d="M56.4284 95.9310
L56.7617 95.9310
" />
<path d="M55.5712 95.4548
L55.3808 95.4548
" />
<path d="M55.3808 95.4548
L55.2855 95.5024
" />
<path d="M55.2855 95.5024
L55.1903 95.5977
" />
<path d="M55.1903 95.5977
L55.1427 95.7882
" />
<path d="M55.1427 95.7882
L55.1427 96.1215
" />
<path d="M55.1427 96.1215
L55.1903 96.3120
" />
<path d="M55.1903 96.3120
L55.2855 96.4072
" />
<path d="M55.2855 96.4072
L55.3808 96.4548
" />
<path d="M55.3808 96.4548
L55.5712 96.4548
" />
<path d="M55.5712 96.4548
L55.6665 96.4072
" />
<path d="M55.6665 96.4072
L55.7617 96.3120
" />
<path d="M55.7617 96.3120
L55.8093 96.1215
" />
<path d="M55.8093 96.1215
L55.8093 95.7882
" />
<path d="M55.8093 95.7882
L55.7617 95.5977
" />
<path d="M55.7617 95.5977
L55.6665 95.5024
" />
<path d="M55.6665 95.5024
L55.5712 95.4548
" />
<path d="M54.8569 95.4548
L54.2855 95.4548
" />
<path d="M54.5712 96.4548
L54.5712 95.4548
" />
<path d="M54.0950 95.4548
L53.5236 95.4548
" />
<path d="M53.8093 96.4548
L53.8093 95.4548
" />
<path d="M52.9998 95.4548
L52.8093 95.4548
" />
<path d="M52.8093 95.4548
L52.7141 95.5024
" />
<path d="M52.7141 95.5024
L52.6188 95.5977
" />
<path d="M52.6188 95.5977
L52.5712 95.7882
" />
<path d="M52.5712 95.7882
L52.5712 96.1215
" />
<path d="M52.5712 96.1215
L52.6188 96.3120
" />
<path d="M52.6188 96.3120
L52.7141 96.4072
" />
<path d="M52.7141 96.4072
L52.8093 96.4548
" />
<path d="M52.8093 96.4548
L52.9998 96.4548
" />
<path d="M52.9998 96.4548
L53.0950 96.4072
" />
<path d="M53.0950 96.4072
L53.1903 96.3120
" />
<path d="M53.1903 96.3120
L53.2379 96.1215
" />
<path d="M53.2379 96.1215
L53.2379 95.7882
" />
<path d="M53.2379 95.7882
L53.1903 95.5977
" />
<path d="M53.1903 95.5977
L53.0950 95.5024
" />
<path d="M53.0950 95.5024
L52.9998 95.4548
" />
<path d="M52.1427 96.4548
L52.1427 95.4548
" />
<path d="M52.1427 95.4548
L51.8093 96.1691
" />
<path d="M51.8093 96.1691
L51.4760 95.4548
" />
<path d="M51.4760 95.4548
L51.4760 96.4548
" />
<path d="M50.9998 96.3596
L50.9522 96.4072
" />
<path d="M50.9522 96.4072
L50.9998 96.4548
" />
<path d="M50.9998 96.4548
L51.0474 96.4072
" />
<path d="M51.0474 96.4072
L50.9998 96.3596
" />
<path d="M50.9998 96.3596
L50.9998 96.4548
" />
<path d="M50.9998 95.8358
L50.9522 95.8834
" />
<path d="M50.9522 95.8834
L50.9998 95.9310
" />
<path d="M50.9998 95.9310
L51.0474 95.8834
" />
<path d="M51.0474 95.8834
L50.9998 95.8358
" />
<path d="M50.9998 95.8358
L50.9998 95.9310
" />
<path d="M49.8093 96.4072
L49.6665 96.4548
" />
<path d="M49.6665 96.4548
L49.4284 96.4548
" />
<path d="M49.4284 96.4548
L49.3331 96.4072
" />
<path d="M49.3331 96.4072
L49.2855 96.3596
" />
<path d="M49.2855 96.3596
L49.2379 96.2643
" />
<path d="M49.2379 96.2643
L49.2379 96.1691
" />
<path d="M49.2379 96.1691
L49.2855 96.0739
" />
<path d="M49.2855 96.0739
L49.3331 96.0262
" />
<path d="M49.3331 96.0262
L49.4284 95.9786
" />
<path d="M49.4284 95.9786
L49.6188 95.9310
" />
<path d="M49.6188 95.9310
L49.7141 95.8834
" />
<path d="M49.7141 95.8834
L49.7617 95.8358
" />
<path d="M49.7617 95.8358
L49.8093 95.7405
" />
<path d="M49.8093 95.7405
L49.8093 95.6453
" />
<path d="M49.8093 95.6453
L49.7617 95.5501
" />
<path d="M49.7617 95.5501
L49.7141 95.5024
" />
<path d="M49.7141 95.5024
L49.6188 95.4548
" />
<path d="M49.6188 95.4548
L49.3808 95.4548
" />
<path d="M49.3808 95.4548
L49.2379 95.5024
" />
<path d="M48.8569 96.4072
L48.7141 96.4548
" />
<path d="M48.7141 96.4548
L48.4760 96.4548
" />
<path d="M48.4760 96.4548
L48.3808 96.4072
" />
<path d="M48.3808 96.4072
L48.3331 96.3596
" />
<path d="M48.3331 96.3596
L48.2855 96.2643
" />
<path d="M48.2855 96.2643
L48.2855 96.1691
" />
<path d="M48.2855 96.1691
L48.3331 96.0739
" />
<path d="M48.3331 96.0739
L48.3808 96.0262
" />
<path d="M48.3808 96.0262
L48.4760 95.9786
" />
<path d="M48.4760 95.9786
L48.6665 95.9310
" />
<path d="M48.6665 95.9310
L48.7617 95.8834
" />
<path d="M48.7617 95.8834
L48.8093 95.8358
" />
<path d="M48.8093 95.8358
L48.8569 95.7405
" />
<path d="M48.8569 95.7405
L48.8569 95.6453
" />
<path d="M48.8569 95.6453
L48.8093 95.5501
" />
<path d="M48.8093 95.5501
L48.7617 95.5024
" />
<path d="M48.7617 95.5024
L48.6665 95.4548
" />
<path d="M48.6665 95.4548
L48.4284 95.4548
" />
<path d="M48.4284 95.4548
L48.2855 95.5024
" />
<path d="M47.8569 96.4548
L47.8569 95.4548
" />
<path d="M47.8569 95.4548
L47.6188 95.4548
" />
<path d="M47.6188 95.4548
L47.4760 95.5024
" />
<path d="M47.4760 95.5024
L47.3808 95.5977
" />
<path d="M47.3808 95.5977
L47.3331 95.6929
" />
<path d="M47.3331 95.6929
L47.2855 95.8834
" />
<path d="M47.2855 95.8834
L47.2855 96.0262
" />
<path d="M47.2855 96.0262
L47.3331 96.2167
" />
<path d="M47.3331 96.2167
L47.3808 96.3120
" />
<path d="M47.3808 96.3120
L47.4760 96.4072
" />
<path d="M47.4760 96.4072
L47.6188 96.4548
" />
<path d="M47.6188 96.4548
L47.8569 96.4548
" />
<path d="M46.1427 95.5501
L46.0950 95.5024
" />
<path d="M46.0950 95.5024
L45.9998 95.4548
" />
<path d="M45.9998 95.4548
L45.7617 95.4548
" />
<path d="M45.7617 95.4548
L45.6665 95.5024
" />
<path d="M45.6665 95.5024
L45.6188 95.5501
" />
<path d="M45.6188 95.5501
L45.5712 95.6453
" />
<path d="M45.5712 95.6453
L45.5712 95.7405
" />
<path d="M45.5712 95.7405
L45.6188 95.8834
" />
<path d="M45.6188 95.8834
L46.1903 96.4548
" />
<path d="M46.1903 96.4548
L45.5712 96.4548
" />
<path d="M43.6665 95.4072
L44.5236 96.6929
" />
<path d="M42.6188 95.5501
L42.5712 95.5024
" />
<path d="M42.5712 95.5024
L42.4760 95.4548
" />
<path d="M42.4760 95.4548
L42.2379 95.4548
" />
<path d="M42.2379 95.4548
L42.1427 95.5024
" />
<path d="M42.1427 95.5024
L42.0950 95.5501
" />
<path d="M42.0950 95.5501
L42.0474 95.6453
" />
<path d="M42.0474 95.6453
L42.0474 95.7405
" />
<path d="M42.0474 95.7405
L42.0950 95.8834
" />
<path d="M42.0950 95.8834
L42.6665 96.4548
" />
<path d="M42.6665 96.4548
L42.0474 96.4548
" />
<path d="M41.6665 95.5501
L41.6188 95.5024
" />
<path d="M41.6188 95.5024
L41.5236 95.4548
" />
<path d="M41.5236 95.4548
L41.2855 95.4548
" />
<path d="M41.2855 95.4548
L41.1903 95.5024
" />
<path d="M41.1903 95.5024
L41.1427 95.5501
" />
<path d="M41.1427 95.5501
L41.0950 95.6453
" />
<path d="M41.0950 95.6453
L41.0950 95.7405
" />
<path d="M41.0950 95.7405
L41.1427 95.8834
" />
<path d="M41.1427 95.8834
L41.7141 96.4548
" />
<path d="M41.7141 96.4548
L41.0950 96.4548
" />
<path d="M40.5236 95.8834
L40.6188 95.8358
" />
<path d="M40.6188 95.8358
L40.6665 95.7882
" />
<path d="M40.6665 95.7882
L40.7141 95.6929
" />
<path d="M40.7141 95.6929
L40.7141 95.6453
" />
<path d="M40.7141 95.6453
L40.6665 95.5501
" />
<path d="M40.6665 95.5501
L40.6188 95.5024
" />
<path d="M40.6188 95.5024
L40.5236 95.4548
" />
<path d="M40.5236 95.4548
L40.3331 95.4548
" />
<path d="M40.3331 95.4548
L40.2379 95.5024
" />
<path d="M40.2379 95.5024
L40.1903 95.5501
" />
<path d="M40.1903 95.5501
L40.1427 95.6453
" />
<path d="M40.1427 95.6453
L40.1427 95.6929
" />
<path d="M40.1427 95.6929
L40.1903 95.7882
" />
<path d="M40.1903 95.7882
L40.2379 95.8358
" />
<path d="M40.2379 95.8358
L40.3331 95.8834
" />
<path d="M40.3331 95.8834
L40.5236 95.8834
" />
<path d="M40.5236 95.8834
L40.6188 95.9310
" />
<path d="M40.6188 95.9310
L40.6665 95.9786
" />
<path d="M40.6665 95.9786
L40.7141 96.0739
" />
<path d="M40.7141 96.0739
L40.7141 96.2643
" />
<path d="M40.7141 96.2643
L40.6665 96.3596
" />
<path d="M40.6665 96.3596
L40.6188 96.4072
" />
<path d="M40.6188 96.4072
L40.5236 96.4548
" />
<path d="M40.5236 96.4548
L40.3331 96.4548
" />
<path d="M40.3331 96.4548
L40.2379 96.4072
" />
<path d="M40.2379 96.4072
L40.1903 96.3596
" />
<path d="M40.1903 96.3596
L40.1427 96.2643
" />
<path d="M40.1427 96.2643
L40.1427 96.0739
" />
<path d="M40.1427 96.0739
L40.1903 95.9786
" />
<path d="M40.1903 95.9786
L40.2379 95.9310
" />
<path d="M40.2379 95.9310
L40.3331 95.8834
" />
<path d="M39.5236 95.4548
L39.4284 95.4548
" />
<path d="M39.4284 95.4548
L39.3331 95.5024
" />
<path d="M39.3331 95.5024
L39.2855 95.5501
" />
<path d="M39.2855 95.5501
L39.2379 95.6453
" />
<path d="M39.2379 95.6453
L39.1903 95.8358
" />
<path d="M39.1903 95.8358
L39.1903 96.0739
" />
<path d="M39.1903 96.0739
L39.2379 96.2643
" />
<path d="M39.2379 96.2643
L39.2855 96.3596
" />
<path d="M39.2855 96.3596
L39.3331 96.4072
" />
<path d="M39.3331 96.4072
L39.4284 96.4548
" />
<path d="M39.4284 96.4548
L39.5236 96.4548
" />
<path d="M39.5236 96.4548
L39.6188 96.4072
" />
<path d="M39.6188 96.4072
L39.6665 96.3596
" />
<path d="M39.6665 96.3596
L39.7141 96.2643
" />
<path d="M39.7141 96.2643
L39.7617 96.0739
" />
<path d="M39.7617 96.0739
L39.7617 95.8358
" />
<path d="M39.7617 95.8358
L39.7141 95.6453
" />
<path d="M39.7141 95.6453
L39.6665 95.5501
" />
<path d="M39.6665 95.5501
L39.6188 95.5024
" />
<path d="M39.6188 95.5024
L39.5236 95.4548
" />
</g><text x="77.9998" y="52.7000"
transform="scale(-1 1) translate(-155.999600 0)"
textLength="25.0367" font-size="1.8667" lengthAdjust="spacingAndGlyphs"
text-anchor="middle" opacity="0" stroke-opacity="0">CM5 / 4 mm standoffs</text>
<g class="stroked-text"><desc>CM5 / 4 mm standoffs</desc>
<path d="M89.2998 52.5065
L89.3665 52.5732
" />
<path d="M89.3665 52.5732
L89.5665 52.6399
" />
<path d="M89.5665 52.6399
L89.6998 52.6399
" />
<path d="M89.6998 52.6399
L89.8998 52.5732
" />
<path d="M89.8998 52.5732
L90.0331 52.4399
" />
<path d="M90.0331 52.4399
L90.0998 52.3065
" />
<path d="M90.0998 52.3065
L90.1665 52.0399
" />
<path d="M90.1665 52.0399
L90.1665 51.8399
" />
<path d="M90.1665 51.8399
L90.0998 51.5732
" />
<path d="M90.0998 51.5732
L90.0331 51.4399
" />
<path d="M90.0331 51.4399
L89.8998 51.3065
" />
<path d="M89.8998 51.3065
L89.6998 51.2399
" />
<path d="M89.6998 51.2399
L89.5665 51.2399
" />
<path d="M89.5665 51.2399
L89.3665 51.3065
" />
<path d="M89.3665 51.3065
L89.2998 51.3732
" />
<path d="M88.6998 52.6399
L88.6998 51.2399
" />
<path d="M88.6998 51.2399
L88.2331 52.2399
" />
<path d="M88.2331 52.2399
L87.7665 51.2399
" />
<path d="M87.7665 51.2399
L87.7665 52.6399
" />
<path d="M86.4331 51.2399
L87.0998 51.2399
" />
<path d="M87.0998 51.2399
L87.1665 51.9065
" />
<path d="M87.1665 51.9065
L87.0998 51.8399
" />
<path d="M87.0998 51.8399
L86.9665 51.7732
" />
<path d="M86.9665 51.7732
L86.6331 51.7732
" />
<path d="M86.6331 51.7732
L86.4998 51.8399
" />
<path d="M86.4998 51.8399
L86.4331 51.9065
" />
<path d="M86.4331 51.9065
L86.3665 52.0399
" />
<path d="M86.3665 52.0399
L86.3665 52.3732
" />
<path d="M86.3665 52.3732
L86.4331 52.5065
" />
<path d="M86.4331 52.5065
L86.4998 52.5732
" />
<path d="M86.4998 52.5732
L86.6331 52.6399
" />
<path d="M86.6331 52.6399
L86.9665 52.6399
" />
<path d="M86.9665 52.6399
L87.0998 52.5732
" />
<path d="M87.0998 52.5732
L87.1665 52.5065
" />
<path d="M83.6998 51.1732
L84.8998 52.9732
" />
<path d="M81.5665 51.7065
L81.5665 52.6399
" />
<path d="M81.8998 51.1732
L82.2331 52.1732
" />
<path d="M82.2331 52.1732
L81.3665 52.1732
" />
<path d="M79.7665 52.6399
L79.7665 51.7065
" />
<path d="M79.7665 51.8399
L79.6998 51.7732
" />
<path d="M79.6998 51.7732
L79.5665 51.7065
" />
<path d="M79.5665 51.7065
L79.3665 51.7065
" />
<path d="M79.3665 51.7065
L79.2331 51.7732
" />
<path d="M79.2331 51.7732
L79.1665 51.9065
" />
<path d="M79.1665 51.9065
L79.1665 52.6399
" />
<path d="M79.1665 51.9065
L79.0998 51.7732
" />
<path d="M79.0998 51.7732
L78.9665 51.7065
" />
<path d="M78.9665 51.7065
L78.7665 51.7065
" />
<path d="M78.7665 51.7065
L78.6331 51.7732
" />
<path d="M78.6331 51.7732
L78.5665 51.9065
" />
<path d="M78.5665 51.9065
L78.5665 52.6399
" />
<path d="M77.8998 52.6399
L77.8998 51.7065
" />
<path d="M77.8998 51.8399
L77.8331 51.7732
" />
<path d="M77.8331 51.7732
L77.6998 51.7065
" />
<path d="M77.6998 51.7065
L77.4998 51.7065
" />
<path d="M77.4998 51.7065
L77.3665 51.7732
" />
<path d="M77.3665 51.7732
L77.2998 51.9065
" />
<path d="M77.2998 51.9065
L77.2998 52.6399
" />
<path d="M77.2998 51.9065
L77.2331 51.7732
" />
<path d="M77.2331 51.7732
L77.0998 51.7065
" />
<path d="M77.0998 51.7065
L76.8998 51.7065
" />
<path d="M76.8998 51.7065
L76.7665 51.7732
" />
<path d="M76.7665 51.7732
L76.6998 51.9065
" />
<path d="M76.6998 51.9065
L76.6998 52.6399
" />
<path d="M75.0331 52.5732
L74.8998 52.6399
" />
<path d="M74.8998 52.6399
L74.6331 52.6399
" />
<path d="M74.6331 52.6399
L74.4998 52.5732
" />
<path d="M74.4998 52.5732
L74.4331 52.4399
" />
<path d="M74.4331 52.4399
L74.4331 52.3732
" />
<path d="M74.4331 52.3732
L74.4998 52.2399
" />
<path d="M74.4998 52.2399
L74.6331 52.1732
" />
<path d="M74.6331 52.1732
L74.8331 52.1732
" />
<path d="M74.8331 52.1732
L74.9665 52.1065
" />
<path d="M74.9665 52.1065
L75.0331 51.9732
" />
<path d="M75.0331 51.9732
L75.0331 51.9065
" />
<path d="M75.0331 51.9065
L74.9665 51.7732
" />
<path d="M74.9665 51.7732
L74.8331 51.7065
" />
<path d="M74.8331 51.7065
L74.6331 51.7065
" />
<path d="M74.6331 51.7065
L74.4998 51.7732
" />
<path d="M74.0331 51.7065
L73.4998 51.7065
" />
<path d="M73.8331 51.2399
L73.8331 52.4399
" />
<path d="M73.8331 52.4399
L73.7665 52.5732
" />
<path d="M73.7665 52.5732
L73.6331 52.6399
" />
<path d="M73.6331 52.6399
L73.4998 52.6399
" />
<path d="M72.4331 52.6399
L72.4331 51.9065
" />
<path d="M72.4331 51.9065
L72.4998 51.7732
" />
<path d="M72.4998 51.7732
L72.6331 51.7065
" />
<path d="M72.6331 51.7065
L72.8998 51.7065
" />
<path d="M72.8998 51.7065
L73.0331 51.7732
" />
<path d="M72.4331 52.5732
L72.5665 52.6399
" />
<path d="M72.5665 52.6399
L72.8998 52.6399
" />
<path d="M72.8998 52.6399
L73.0331 52.5732
" />
<path d="M73.0331 52.5732
L73.0998 52.4399
" />
<path d="M73.0998 52.4399
L73.0998 52.3065
" />
<path d="M73.0998 52.3065
L73.0331 52.1732
" />
<path d="M73.0331 52.1732
L72.8998 52.1065
" />
<path d="M72.8998 52.1065
L72.5665 52.1065
" />
<path d="M72.5665 52.1065
L72.4331 52.0399
" />
<path d="M71.7665 51.7065
L71.7665 52.6399
" />
<path d="M71.7665 51.8399
L71.6998 51.7732
" />
<path d="M71.6998 51.7732
L71.5665 51.7065
" />
<path d="M71.5665 51.7065
L71.3665 51.7065
" />
<path d="M71.3665 51.7065
L71.2331 51.7732
" />
<path d="M71.2331 51.7732
L71.1665 51.9065
" />
<path d="M71.1665 51.9065
L71.1665 52.6399
" />
<path d="M69.8998 52.6399
L69.8998 51.2399
" />
<path d="M69.8998 52.5732
L70.0331 52.6399
" />
<path d="M70.0331 52.6399
L70.2998 52.6399
" />
<path d="M70.2998 52.6399
L70.4331 52.5732
" />
<path d="M70.4331 52.5732
L70.4998 52.5065
" />
<path d="M70.4998 52.5065
L70.5665 52.3732
" />
<path d="M70.5665 52.3732
L70.5665 51.9732
" />
<path d="M70.5665 51.9732
L70.4998 51.8399
" />
<path d="M70.4998 51.8399
L70.4331 51.7732
" />
<path d="M70.4331 51.7732
L70.2998 51.7065
" />
<path d="M70.2998 51.7065
L70.0331 51.7065
" />
<path d="M70.0331 51.7065
L69.8998 51.7732
" />
<path d="M69.0331 52.6399
L69.1665 52.5732
" />
<path d="M69.1665 52.5732
L69.2331 52.5065
" />
<path d="M69.2331 52.5065
L69.2998 52.3732
" />
<path d="M69.2998 52.3732
L69.2998 51.9732
" />
<path d="M69.2998 51.9732
L69.2331 51.8399
" />
<path d="M69.2331 51.8399
L69.1665 51.7732
" />
<path d="M69.1665 51.7732
L69.0331 51.7065
" />
<path d="M69.0331 51.7065
L68.8331 51.7065
" />
<path d="M68.8331 51.7065
L68.6998 51.7732
" />
<path d="M68.6998 51.7732
L68.6331 51.8399
" />
<path d="M68.6331 51.8399
L68.5665 51.9732
" />
<path d="M68.5665 51.9732
L68.5665 52.3732
" />
<path d="M68.5665 52.3732
L68.6331 52.5065
" />
<path d="M68.6331 52.5065
L68.6998 52.5732
" />
<path d="M68.6998 52.5732
L68.8331 52.6399
" />
<path d="M68.8331 52.6399
L69.0331 52.6399
" />
<path d="M68.1665 51.7065
L67.6331 51.7065
" />
<path d="M67.9665 52.6399
L67.9665 51.4399
" />
<path d="M67.9665 51.4399
L67.8998 51.3065
" />
<path d="M67.8998 51.3065
L67.7665 51.2399
" />
<path d="M67.7665 51.2399
L67.6331 51.2399
" />
<path d="M67.3665 51.7065
L66.8331 51.7065
" />
<path d="M67.1665 52.6399
L67.1665 51.4399
" />
<path d="M67.1665 51.4399
L67.0998 51.3065
" />
<path d="M67.0998 51.3065
L66.9665 51.2399
" />
<path d="M66.9665 51.2399
L66.8331 51.2399
" />
<path d="M66.4331 52.5732
L66.2998 52.6399
" />
<path d="M66.2998 52.6399
L66.0331 52.6399
" />
<path d="M66.0331 52.6399
L65.8998 52.5732
" />
<path d="M65.8998 52.5732
L65.8331 52.4399
" />
<path d="M65.8331 52.4399
L65.8331 52.3732
" />
<path d="M65.8331 52.3732
L65.8998 52.2399
" />
<path d="M65.8998 52.2399
L66.0331 52.1732
" />
<path d="M66.0331 52.1732
L66.2331 52.1732
" />
<path d="M66.2331 52.1732
L66.3665 52.1065
" />
<path d="M66.3665 52.1065
L66.4331 51.9732
" />
<path d="M66.4331 51.9732
L66.4331 51.9065
" />
<path d="M66.4331 51.9065
L66.3665 51.7732
" />
<path d="M66.3665 51.7732
L66.2331 51.7065
" />
<path d="M66.2331 51.7065
L66.0331 51.7065
" />
<path d="M66.0331 51.7065
L65.8998 51.7732
" />
</g></g>
<g style="fill:#000000; fill-opacity:1.0000; stroke:none;">
<circle cx="18.4998" cy="95.5000" r="0.1500" /> 
<circle cx="18.4998" cy="94.5000" r="0.1500" /> 
<circle cx="19.4998" cy="95.5000" r="0.1500" /> 
<circle cx="19.4998" cy="94.5000" r="0.1500" /> 
<circle cx="12.8998" cy="113.5900" r="0.3000" /> 
<circle cx="7.0998" cy="113.5900" r="0.3000" /> 
</g>
<g style="fill:none; 
stroke:#000000; stroke-width:0.8000; stroke-opacity:1; 
stroke-linecap:round; stroke-linejoin:round;">
<path d="M5.6698 112.7400
L5.6698 113.4400
" />
<path d="M5.6698 117.0700
L5.6698 117.4700
" />
<path d="M14.3298 117.0700
L14.3298 117.4700
" />
<path d="M14.3298 112.7400
L14.3298 113.4400
" />
</g>
<g style="fill:#000000; fill-opacity:1.0000; stroke:none;">
<circle cx="18.4998" cy="49.5000" r="0.1500" /> 
<circle cx="18.4998" cy="48.5000" r="0.1500" /> 
<circle cx="19.4998" cy="49.5000" r="0.1500" /> 
<circle cx="19.4998" cy="48.5000" r="0.1500" /> 
<circle cx="61.9998" cy="95.0000" r="1.8650" /> 
<circle cx="18.4998" cy="73.5000" r="0.1500" /> 
<circle cx="18.4998" cy="72.5000" r="0.1500" /> 
<circle cx="19.4998" cy="73.5000" r="0.1500" /> 
<circle cx="19.4998" cy="72.5000" r="0.1500" /> 
<circle cx="94.9998" cy="47.0000" r="1.8650" /> 
<circle cx="7.6498" cy="7.4300" r="1.6000" /> 
<circle cx="20.3498" cy="7.4300" r="1.6000" /> 
<circle cx="19.0998" cy="22.6700" r="0.4572" /> 
<circle cx="17.0598" cy="22.6700" r="0.4572" /> 
<circle cx="15.0198" cy="22.6700" r="0.4572" /> 
<circle cx="12.9798" cy="22.6700" r="0.4572" /> 
<circle cx="10.9398" cy="22.6700" r="0.4572" /> 
<circle cx="8.8998" cy="22.6700" r="0.4572" /> 
<circle cx="20.1198" cy="25.2100" r="0.4572" /> 
<circle cx="18.0798" cy="25.2100" r="0.4572" /> 
<circle cx="16.0398" cy="25.2100" r="0.4572" /> 
<circle cx="11.9598" cy="25.2100" r="0.4572" /> 
<circle cx="9.9198" cy="25.2100" r="0.4572" /> 
<circle cx="7.8798" cy="25.2100" r="0.4572" /> 
<circle cx="19.5898" cy="15.5600" r="0.4500" /> 
<circle cx="8.4098" cy="15.5600" r="0.4500" /> 
<circle cx="19.5898" cy="14.0900" r="0.4500" /> 
<circle cx="8.4098" cy="14.0900" r="0.4500" /> 
<circle cx="20.0898" cy="27.7500" r="0.5150" /> 
<circle cx="17.5498" cy="27.7500" r="0.5150" /> 
<circle cx="10.4498" cy="27.7500" r="0.5150" /> 
<circle cx="7.9098" cy="27.7500" r="0.5150" /> 
<circle cx="22.0698" cy="4.2500" r="0.8000" /> 
<circle cx="5.9298" cy="4.2500" r="0.8000" /> 
<circle cx="29.8998" cy="113.5900" r="0.3000" /> 
<circle cx="24.0998" cy="113.5900" r="0.3000" /> 
</g>
<g style="fill:none; 
stroke:#000000; stroke-width:0.8000; stroke-opacity:1; 
stroke-linecap:round; stroke-linejoin:round;">
<path d="M22.6698 112.7400
L22.6698 113.4400
" />
<path d="M22.6698 117.0700
L22.6698 117.4700
" />
<path d="M31.3298 117.0700
L31.3298 117.4700
" />
<path d="M31.3298 112.7400
L31.3298 113.4400
" />
</g>
<g style="fill:#000000; fill-opacity:1.0000; stroke:none;">
<circle cx="98.1698" cy="103.0500" r="0.5000" /> 
<circle cx="98.1698" cy="111.0500" r="0.5000" /> 
<circle cx="61.9998" cy="47.0000" r="1.8650" /> 
<circle cx="95.7798" cy="27.5000" r="0.5000" /> 
<circle cx="93.2398" cy="27.5000" r="0.5000" /> 
<circle cx="90.6998" cy="27.5000" r="0.5000" /> 
<circle cx="88.1598" cy="27.5000" r="0.5000" /> 
<circle cx="48.9298" cy="27.5000" r="0.5000" /> 
<circle cx="46.3898" cy="27.5000" r="0.5000" /> 
<circle cx="43.8498" cy="27.5000" r="0.5000" /> 
<circle cx="41.3098" cy="27.5000" r="0.5000" /> 
</g>
<g style="fill:none; 
stroke:#000000; stroke-width:0.8000; stroke-opacity:1; 
stroke-linecap:round; stroke-linejoin:round;">
<path d="M9.7198 35.6500
L11.9198 35.6500
" />
<path d="M7.5698 41.3500
L7.5698 39.3500
" />
<path d="M13.6298 41.7000
L13.6298 39.0000
" />
</g>
<g style="fill:#000000; fill-opacity:1.0000; stroke:none;">
<circle cx="94.9998" cy="95.0000" r="1.8650" /> 
<circle cx="47.9998" cy="113.7500" r="1.8650" /> 
<circle cx="37.9998" cy="36.5000" r="0.5500" /> 
<circle cx="57.9998" cy="36.5000" r="0.8000" /> 
<circle cx="79.9998" cy="113.7500" r="1.8650" /> 
<circle cx="69.9998" cy="36.5000" r="0.5500" /> 
<circle cx="89.9998" cy="36.5000" r="0.8000" /> 
</g> 
</svg>
